<svg xmlns="http://www.w3.org/2000/svg" version="1.1" xmlns:xlink="http://www.w3.org/1999/xlink" xmlns:svgjs="http://svgjs.dev/svgjs" width="1500" height="1500" viewBox="0 0 1500 1500"><rect width="1500" height="1500" fill="#ffffff"></rect><g transform="matrix(0.6666666666666666,0,0,0.6666666666666666,250,348.59897201400145)"><svg viewBox="0 0 448 360" data-background-color="#000000" preserveAspectRatio="xMidYMid meet" height="1205" width="1500" xmlns="http://www.w3.org/2000/svg" xmlns:xlink="http://www.w3.org/1999/xlink"><g id="tight-bounds" transform="matrix(1,0,0,1,0,-0.11904140046539169)"><svg viewBox="0 0 448 360" height="360" width="448"><rect width="448" height="360.2380828009308" fill="#000000" mask="url(#2d660998-4675-4612-a4e6-15142e23b4fe)" data-fill-palette-color="tertiary"></rect><g><svg></svg></g><g><svg viewBox="0 0 448 360" height="360" width="448"><g><path transform="translate(36.9151,-7.08178) scale(0.00624,0.00624)" d="M25167 8301c221 0 400 179 400 400 0 221-179 400-400 400h-3824l-2753 2753c-156 156-409 156-566 0-156-156-156-409 0-566l2188-2188h-6475c-1847 0-3071 431-3819 1301-760 885-1068 2254-1068 4110 0 11 0 22-1 33l34 5884 2356-2356c156-156 409-156 566 0 156 156 156 409 0 566l-2915 2915c33 5746 31 11443-2 17189 4087 4041 8117 8068 12157 12154h4070c221 0 400 179 400 400 0 221-179 400-400 400h-3279l4160 4208 1-1c1313 1313 2498 2062 3660 2151 1146 87 2316-474 3622-1779l4579-4579h-3323c-221 0-400-179-400-400 0-221 179-400 400-400h4123l2666-2666c156-156 409-156 566 0 156 156 156 409 0 566l-2101 2101h6475c1847 0 3071-431 3819-1301 760-885 1068-2254 1068-4110h2l-34-5917-2568 2568c-156 156-409 156-566 0-156-156-156-409 0-566l3127-3127c-33-5746-31-11443 2-17189-4087-4041-8117-8068-12157-12154h-4193c-221 0-400-179-400-400 0-221 179-400 400-400h3402l-4141-4189c-7-6-13-12-20-18-1313-1313-2498-2062-3660-2151-1146-87-2316 474-3622 1779l-4579 4579h3024zM13737 8301h7275l5144-5144c1483-1483 2856-2116 4247-2010 1374 104 2719 934 4167 2382 8 8 15 15 22 23l4695 4749h6977c2096 0 3515 524 4425 1583 898 1045 1261 2582 1261 4629 0 13-1 25-2 37l-36 6373 4559 4508 1-1c1448 1448 2278 2792 2382 4167 106 1391-528 2764-2010 4247l-4934 4934 38 6710h2c0 2047-364 3584-1261 4629-910 1059-2329 1583-4425 1583h-7275l-5144 5144c-1483 1483-2856 2116-4247 2010-1374-104-2719-934-4167-2382l1-1-4718-4772h-6977c-2096 0-3515-524-4425-1583-898-1045-1261-2582-1261-4629h2l37-6410-4537-4485c-8-7-16-14-23-22-1448-1448-2278-2792-2382-4167-106-1391 528-2764 2010-4247l4934-4934-38-6672c-1-12-2-25-2-37 0-2047 364-3584 1261-4629 910-1059 2329-1583 4425-1583zM8141 30000l-44-7653-4374 4374c-1305 1305-1866 2476-1779 3622 88 1162 838 2348 2151 3660 6 6 13 13 18 20l3983 3937 45-7961zM8882 39860l-32 5627h2c0 1857 308 3226 1068 4110 748 871 1972 1301 3819 1301h6186l-5380-5442-5662-5597zM46264 9101h-6186l5380 5442 5662 5597 32-5594c-1-11-1-22-1-33 0-1857-308-3226-1068-4110-748-871-1972-1301-3819-1301zM51906 22039l-45 7961 44 7653 4374-4374c1305-1305 1866-2476 1779-3622-88-1163-838-2348-2151-3660l1-1-4002-3956z" fill="#000000" fill-rule="nonzero" stroke="none" stroke-width="1" stroke-linecap="butt" stroke-linejoin="miter" stroke-miterlimit="10" stroke-dasharray="" stroke-dashoffset="0" font-family="none" font-weight="none" font-size="none" text-anchor="none" style="mix-blend-mode: normal" data-fill-palette-color="tertiary"></path></g><g transform="matrix(1,0,0,1,112,144.96482005333334)"><svg viewBox="0 0 224 70.07035989333332" height="70.07035989333332" width="224"><g><svg viewBox="0 0 224 70.07035989333332" height="70.07035989333332" width="224"><g><svg viewBox="0 0 224 70.07035989333332" height="70.07035989333332" width="224"><g transform="matrix(1,0,0,1,0,37.96369322666666)"><svg viewBox="0 0 224 32.10666666666666" height="32.10666666666666" width="224"><g id="textblocktransform"><svg viewBox="0 0 224 32.10666666666666" height="32.10666666666666" width="224" id="textblock"><g><svg viewBox="0 0 224 32.10666666666666" height="32.10666666666666" width="224"><g transform="matrix(1,0,0,1,0,0)"><svg width="224" viewBox="1.6 -36.15 254.98 36.55" height="32.10666666666666" data-palette-color="url(#0b7f5cda-a08a-49dc-bc30-c34098795ddc)"></svg></g></svg></g></svg></g></svg></g><g transform="matrix(1,0,0,1,95.36077551980794,0)"><svg viewBox="0 0 33.278448960384104 33.27856" height="33.27856" width="33.278448960384104"><g><svg xmlns="http://www.w3.org/2000/svg" viewBox="0.00021354625035219232 0.00021354625035219232 63.99957290749929 63.99978645374965" x="0" y="0" height="33.27856" width="33.278448960384104" class="icon-icon-0" data-fill-palette-color="accent" id="icon-0"></svg></g></svg></g><g></g></svg></g></svg></g></svg></g></svg></g><defs></defs><mask id="0faa1d4b-7434-4c94-a74f-e50f35100701"><g id="SvgjsG1203"><svg viewBox="0 0 448 360" height="360" width="448"><g><svg></svg></g><g><svg viewBox="0 0 448 360" height="360" width="448"><g><path transform="translate(36.9151,-7.08178) scale(0.00624,0.00624)" d="M25167 8301c221 0 400 179 400 400 0 221-179 400-400 400h-3824l-2753 2753c-156 156-409 156-566 0-156-156-156-409 0-566l2188-2188h-6475c-1847 0-3071 431-3819 1301-760 885-1068 2254-1068 4110 0 11 0 22-1 33l34 5884 2356-2356c156-156 409-156 566 0 156 156 156 409 0 566l-2915 2915c33 5746 31 11443-2 17189 4087 4041 8117 8068 12157 12154h4070c221 0 400 179 400 400 0 221-179 400-400 400h-3279l4160 4208 1-1c1313 1313 2498 2062 3660 2151 1146 87 2316-474 3622-1779l4579-4579h-3323c-221 0-400-179-400-400 0-221 179-400 400-400h4123l2666-2666c156-156 409-156 566 0 156 156 156 409 0 566l-2101 2101h6475c1847 0 3071-431 3819-1301 760-885 1068-2254 1068-4110h2l-34-5917-2568 2568c-156 156-409 156-566 0-156-156-156-409 0-566l3127-3127c-33-5746-31-11443 2-17189-4087-4041-8117-8068-12157-12154h-4193c-221 0-400-179-400-400 0-221 179-400 400-400h3402l-4141-4189c-7-6-13-12-20-18-1313-1313-2498-2062-3660-2151-1146-87-2316 474-3622 1779l-4579 4579h3024zM13737 8301h7275l5144-5144c1483-1483 2856-2116 4247-2010 1374 104 2719 934 4167 2382 8 8 15 15 22 23l4695 4749h6977c2096 0 3515 524 4425 1583 898 1045 1261 2582 1261 4629 0 13-1 25-2 37l-36 6373 4559 4508 1-1c1448 1448 2278 2792 2382 4167 106 1391-528 2764-2010 4247l-4934 4934 38 6710h2c0 2047-364 3584-1261 4629-910 1059-2329 1583-4425 1583h-7275l-5144 5144c-1483 1483-2856 2116-4247 2010-1374-104-2719-934-4167-2382l1-1-4718-4772h-6977c-2096 0-3515-524-4425-1583-898-1045-1261-2582-1261-4629h2l37-6410-4537-4485c-8-7-16-14-23-22-1448-1448-2278-2792-2382-4167-106-1391 528-2764 2010-4247l4934-4934-38-6672c-1-12-2-25-2-37 0-2047 364-3584 1261-4629 910-1059 2329-1583 4425-1583zM8141 30000l-44-7653-4374 4374c-1305 1305-1866 2476-1779 3622 88 1162 838 2348 2151 3660 6 6 13 13 18 20l3983 3937 45-7961zM8882 39860l-32 5627h2c0 1857 308 3226 1068 4110 748 871 1972 1301 3819 1301h6186l-5380-5442-5662-5597zM46264 9101h-6186l5380 5442 5662 5597 32-5594c-1-11-1-22-1-33 0-1857-308-3226-1068-4110-748-871-1972-1301-3819-1301zM51906 22039l-45 7961 44 7653 4374-4374c1305-1305 1866-2476 1779-3622-88-1163-838-2348-2151-3660l1-1-4002-3956z" fill="black" fill-rule="nonzero" stroke="none" stroke-width="1" stroke-linecap="butt" stroke-linejoin="miter" stroke-miterlimit="10" stroke-dasharray="" stroke-dashoffset="0" font-family="none" font-weight="none" font-size="none" text-anchor="none" style="mix-blend-mode: normal"></path></g><g transform="matrix(1,0,0,1,112,144.96482005333334)"><svg viewBox="0 0 224 70.07035989333332" height="70.07035989333332" width="224"><g><svg viewBox="0 0 224 70.07035989333332" height="70.07035989333332" width="224"><g><svg viewBox="0 0 224 70.07035989333332" height="70.07035989333332" width="224"><g transform="matrix(1,0,0,1,0,37.96369322666666)"><svg viewBox="0 0 224 32.10666666666666" height="32.10666666666666" width="224"><g id="SvgjsG1202"><svg viewBox="0 0 224 32.10666666666666" height="32.10666666666666" width="224" id="SvgjsSvg1201"><g><svg viewBox="0 0 224 32.10666666666666" height="32.10666666666666" width="224"><g transform="matrix(1,0,0,1,0,0)"><svg width="224" viewBox="1.6 -36.15 254.98 36.55" height="32.10666666666666" data-palette-color="url(#0b7f5cda-a08a-49dc-bc30-c34098795ddc)"><path d="M2.1-34.5L13.8-34.5 14.3-30.35Q13.5-29.4 11.55-28.65L11.55-28.65 11.55-5.8Q13.55-5 14.3-4.15L14.3-4.15 13.8 0 2.1 0 1.6-4.15Q2.25-5 4.35-5.8L4.35-5.8 4.35-28.65Q2.3-29.4 1.6-30.35L1.6-30.35 2.1-34.5ZM17.2-21.15L17.7-25Q20.45-25.6 22.65-25.6 24.85-25.6 26.3-25.5L26.3-25.5 26.3-23Q27.55-24.05 29.62-24.73 31.7-25.4 33.6-25.4L33.6-25.4Q38.5-25.4 40.47-23.1 42.45-20.8 42.45-15.15L42.45-15.15 42.45-5.55Q44.4-4.8 45.2-3.85L45.2-3.85 44.7 0 33.2 0 32.7-3.85Q33.4-4.8 35.45-5.55L35.45-5.55 35.45-15.45Q35.45-18.15 34.57-19.07 33.7-20 31.45-20 29.2-20 26.95-18.4L26.95-18.4 26.95-5.55Q28.9-4.8 29.7-3.85L29.7-3.85 29.2 0 17.7 0 17.2-3.85Q17.9-4.8 19.95-5.55L19.95-5.55 19.95-19.45Q18.2-20.05 17.2-21.15L17.2-21.15ZM46.95-21.15L47.45-25Q50.2-25.6 52.4-25.6 54.6-25.6 56.05-25.5L56.05-25.5 56.05-23Q57.3-24.05 59.37-24.73 61.45-25.4 63.34-25.4L63.34-25.4Q68.25-25.4 70.22-23.1 72.2-20.8 72.2-15.15L72.2-15.15 72.2-5.55Q74.15-4.8 74.95-3.85L74.95-3.85 74.45 0 62.95 0 62.45-3.85Q63.15-4.8 65.2-5.55L65.2-5.55 65.2-15.45Q65.2-18.15 64.32-19.07 63.45-20 61.2-20 58.95-20 56.7-18.4L56.7-18.4 56.7-5.55Q58.65-4.8 59.45-3.85L59.45-3.85 58.95 0 47.45 0 46.95-3.85Q47.65-4.8 49.7-5.55L49.7-5.55 49.7-19.45Q47.95-20.05 46.95-21.15L46.95-21.15ZM88.27 0.4Q82.34 0.4 79.49-2.75 76.64-5.9 76.64-12.28 76.64-18.65 79.82-22.03 82.99-25.4 88.94-25.4 94.89-25.4 97.77-22.4 100.64-19.4 100.64-13.03 100.64-6.65 97.42-3.13 94.19 0.4 88.27 0.4ZM83.84-12.7L83.84-12.7Q83.84-4.7 88.64-4.7L88.64-4.7Q91.09-4.7 92.27-6.53 93.44-8.35 93.44-12.5L93.44-12.5Q93.44-20.3 88.54-20.3L88.54-20.3Q86.14-20.3 84.99-18.57 83.84-16.85 83.84-12.7ZM126.74-19.2L118.49 0.3 112.99 0.3 104.79-19.2Q102.29-20 101.44-21.15L101.44-21.15 101.94-25 113.44-25 113.94-21.15Q113.29-20.35 111.79-19.7L111.79-19.7 114.49-12.15Q115.39-9.8 115.79-7.5L115.79-7.5 115.89-6.8 116.59-6.8Q116.99-9.3 117.99-12.05L117.99-12.05 120.64-19.45Q118.79-20.15 118.04-21.15L118.04-21.15 118.54-25 129.54-25 130.04-21.15Q129.14-20 126.74-19.2L126.74-19.2ZM132.29-21.3L132.29-21.3Q132.29-22.05 132.34-22.9L132.34-22.9Q136.99-25.4 142.34-25.4 147.69-25.4 150.01-23.38 152.34-21.35 152.34-16.65L152.34-16.65 152.34-6Q154.09-5.65 155.09-5.15L155.09-5.15 155.09-0.8Q152.54 0.4 147.79 0.4L147.79 0.4Q147.29-0.9 146.94-2.75L146.94-2.75Q144.79 0.4 139.14 0.4L139.14 0.4Q135.79 0.4 133.41-1.55 131.04-3.5 131.04-6.85 131.04-10.2 133.26-12.13 135.49-14.05 139.89-14.05L139.89-14.05 145.34-14.05 145.34-16.45Q145.34-20.35 141.19-20.35L141.19-20.35Q139.64-20.35 138.64-20.05L138.64-20.05Q138.54-17.95 138.04-16.8L138.04-16.8 133.14-16.8Q132.29-18.55 132.29-21.3ZM141.29-4.7L141.29-4.7Q143.84-4.7 145.34-6.2L145.34-6.2 145.34-10.3 141.84-10.3Q138.24-10.3 138.24-7.55L138.24-7.55Q138.24-6.3 139.01-5.5 139.79-4.7 141.29-4.7ZM152.84-34.45L180.84-34.45 180.84-27.3 177.69-26.9Q177.03-27.4 176.44-29L176.44-29 170.44-29 170.44-5.8Q172.44-5 173.19-4.15L173.19-4.15 172.69 0 160.99 0 160.49-4.15Q161.13-5 163.24-5.8L163.24-5.8 163.24-29 157.24-29Q156.63-27.4 155.99-26.9L155.99-26.9 152.84-27.3 152.84-34.45ZM194.53 0.4L194.53 0.4Q188.53 0.4 185.51-2.8 182.48-6 182.48-12.1L182.48-12.1Q182.48-15.8 183.53-18.48 184.58-21.15 186.38-22.6L186.38-22.6Q189.88-25.4 194.53-25.4 199.18-25.4 201.66-23.03 204.13-20.65 204.13-14.5L204.13-14.5Q204.13-10.9 200.58-10.9L200.58-10.9 189.73-10.9Q189.93-7.75 191.36-6.45 192.78-5.15 195.88-5.15L195.88-5.15Q197.58-5.15 199.13-5.55 200.68-5.95 201.38-6.35L201.38-6.35 202.08-6.75 203.58-2.75Q203.28-2.4 202.71-1.88 202.13-1.35 199.81-0.48 197.48 0.4 194.53 0.4ZM189.78-15.05L197.68-15.35Q197.78-16.05 197.78-17.05 197.78-18.05 196.98-19.18 196.18-20.3 194.21-20.3 192.23-20.3 191.18-19.1 190.13-17.9 189.78-15.05L189.78-15.05ZM218.43-20.3L218.43-20.3Q213.83-20.3 213.83-12.4L213.83-12.4Q213.83-8.4 215.11-6.83 216.38-5.25 218.78-5.25L218.78-5.25Q222.58-5.25 225.48-5.95L225.48-5.95 226.98-2.1Q225.38-1.05 222.68-0.33 219.98 0.4 217.43 0.4L217.43 0.4Q206.63 0.4 206.63-12.1L206.63-12.1Q206.63-19.4 210.38-22.6L210.38-22.6Q213.73-25.4 218.53-25.4 223.33-25.4 226.53-23.6L226.53-23.6Q226.58-23.1 226.58-22.65L226.58-22.65Q226.58-19.8 225.28-17.25L225.28-17.25 220.88-17.25Q220.18-18.5 220.03-20.25L220.03-20.25Q219.43-20.3 218.43-20.3ZM228.58-31.65L229.08-35.5Q231.88-36.15 234.28-36.15 236.68-36.15 238.33-36L238.33-36 238.33-23.5Q239.53-24.3 241.53-24.85 243.53-25.4 245.08-25.4L245.08-25.4Q250.03-25.4 251.93-23 253.83-20.6 253.83-15.7L253.83-15.7 253.83-5.55Q255.78-4.8 256.58-3.85L256.58-3.85 256.08 0 244.58 0 244.08-3.85Q244.78-4.8 246.83-5.55L246.83-5.55 246.83-15.45Q246.83-18.15 245.95-19.07 245.08-20 242.78-20 240.48-20 238.33-18.4L238.33-18.4 238.33-5.55Q240.28-4.8 241.08-3.85L241.08-3.85 240.58 0 229.08 0 228.58-3.85Q229.28-4.8 231.33-5.55L231.33-5.55 231.33-29.95Q229.58-30.55 228.58-31.65L228.58-31.65Z" opacity="1" transform="matrix(1,0,0,1,0,0)" fill="white" class="wordmark-text-0" id="SvgjsPath1200"></path></svg></g></svg></g></svg></g></svg></g><g transform="matrix(1,0,0,1,95.36077551980794,0)"><svg viewBox="0 0 33.278448960384104 33.27856" height="33.27856" width="33.278448960384104"><g><svg xmlns="http://www.w3.org/2000/svg" viewBox="0.00021354625035219232 0.00021354625035219232 63.99957290749929 63.99978645374965" x="0" y="0" height="33.27856" width="33.278448960384104" class="icon-icon-0" data-fill-palette-color="accent" id="SvgjsSvg1199"><g data-name="08-Innovate" fill="black"><path d="M43 27H41a9.01 9.01 0 0 0-9-9V16A11.013 11.013 0 0 1 43 27Z" fill="black"></path><path d="M32 38A11.013 11.013 0 0 1 21 27h2a9.011 9.011 0 0 0 9 9Z" fill="black"></path><path d="M37 45H27a1 1 0 0 1-1-1V41.818a16 16 0 1 1 12 0V44A1 1 0 0 1 37 45Zm-9-2h8V41.128a1 1 0 0 1 0.666-0.943 14 14 0 1 0-9.333 0 1 1 0 0 1 0.667 0.943Z" fill="black"></path><path d="M39 49H25a1 1 0 0 1-1-1V44a1 1 0 0 1 1-1H39a1 1 0 0 1 1 1v4A1 1 0 0 1 39 49ZM26 47H38V45H26Z" fill="black"></path><path d="M36 53H28a1 1 0 0 1-0.707-0.293l-2-2A1 1 0 0 1 25 50V48h2v1.586L28.414 51h7.172L37 49.586V48h2v2a1 1 0 0 1-0.293 0.707l-2 2A1 1 0 0 1 36 53Z" fill="black"></path><path d="M33 44H31V27a1 1 0 0 1 1-1h3V24h2v3a1 1 0 0 1-1 1H33Z" fill="black"></path><path d="M32 28H28a1 1 0 0 1-1-1V24h2v2h3Z" fill="black"></path><path d="M36 10H34V7a1 1 0 0 1 1-1h0.586L32 2.414 28.414 6H29a1 1 0 0 1 1 1v3H28V8H26a1 1 0 0 1-0.707-1.707l6-6a1 1 0 0 1 1.414 0l6 6A1 1 0 0 1 38 8H36Z" fill="black"></path><path d="M32 64a1 1 0 0 1-0.707-0.293l-6-6A1 1 0 0 1 26 56h2V54h2v3a1 1 0 0 1-1 1h-0.586L32 61.586 35.586 58H35a1 1 0 0 1-1-1V54h2v2h2a1 1 0 0 1 0.707 1.707l-6 6A1 1 0 0 1 32 64Z" fill="black"></path><path d="M57 39a1 1 0 0 1-1-1V36H48V34h9a1 1 0 0 1 1 1v0.586L61.586 32 58 28.414V29a1 1 0 0 1-1 1H50V28h6V26a1 1 0 0 1 1.707-0.707l6 6a1 1 0 0 1 0 1.414l-6 6A1 1 0 0 1 57 39Z" fill="black"></path><path d="M7 39a1 1 0 0 1-0.707-0.293l-6-6a1 1 0 0 1 0-1.414l6-6A1 1 0 0 1 8 26v2h6v2H7a1 1 0 0 1-1-1v-0.586L2.414 32 6 35.586V35a1 1 0 0 1 1-1h9v2H8v2a1 1 0 0 1-1 1Z" fill="black"></path><path d="M54 54H45a1 1 0 0 1-0.707-1.707L45.586 51l-4.293-4.293 1.414-1.414 5 5a1 1 0 0 1 0 1.414L47.414 52H53V46.414l-0.293 0.293a1 1 0 0 1-1.414 0l-7-7 1.414-1.414L52 44.586l1.293-1.293A1 1 0 0 1 55 44v9A1 1 0 0 1 54 54Z" fill="black"></path><path d="M19 54H10a1 1 0 0 1-1-1V44a1 1 0 0 1 1.707-0.707L12 44.586l6.293-6.293 1.414 1.414-7 7a1 1 0 0 1-1.414 0L11 46.414V52h5.586l-0.293-0.293a1 1 0 0 1 0-1.414l5-5 1.414 1.414L18.414 51l1.293 1.293A1 1 0 0 1 19 54Z" fill="black"></path><path d="M48.707 18.707l-1.414-1.414 4-4a1 1 0 0 1 1.414 0l0.293 0.293V8H47.414l0.293 0.293a1 1 0 0 1 0 1.414l-4 4-1.414-1.414L45.586 9 44.293 7.707A1 1 0 0 1 45 6h9a1 1 0 0 1 1 1v9a1 1 0 0 1-1.707 0.707L52 15.414Z" fill="black"></path><path d="M15.293 18.707L12 15.414l-1.293 1.293A1 1 0 0 1 9 16V7a1 1 0 0 1 1-1h9a1 1 0 0 1 0.707 1.707L18.414 9l3.293 3.293-1.414 1.414-4-4a1 1 0 0 1 0-1.414L16.586 8H11v5.586l0.293-0.293a1 1 0 0 1 1.414 0l4 4Z" fill="black"></path></g></svg></g></svg></g><g></g></svg></g></svg></g></svg></g></svg></g><defs><mask></mask></defs></svg><rect width="448" height="360" fill="black" stroke="none" visibility="hidden"></rect></g></mask><linearGradient x1="0" x2="1" y1="0.548" y2="0.55" id="0b7f5cda-a08a-49dc-bc30-c34098795ddc"><stop stop-color="#ff6cab" offset="0"></stop><stop stop-color="#7366ff" offset="1"></stop></linearGradient><rect width="448" height="360.2380828009308" fill="#000000" mask="url(#0faa1d4b-7434-4c94-a74f-e50f35100701)" data-fill-palette-color="primary"></rect><mask id="a40bde1b-42e4-45e5-b8aa-51f333589148"><g id="SvgjsG1222"><svg viewBox="0 0 448 360" height="360" width="448"><g><svg></svg></g><g><svg viewBox="0 0 448 360" height="360" width="448"><g><path transform="translate(36.9151,-7.08178) scale(0.00624,0.00624)" d="M25167 8301c221 0 400 179 400 400 0 221-179 400-400 400h-3824l-2753 2753c-156 156-409 156-566 0-156-156-156-409 0-566l2188-2188h-6475c-1847 0-3071 431-3819 1301-760 885-1068 2254-1068 4110 0 11 0 22-1 33l34 5884 2356-2356c156-156 409-156 566 0 156 156 156 409 0 566l-2915 2915c33 5746 31 11443-2 17189 4087 4041 8117 8068 12157 12154h4070c221 0 400 179 400 400 0 221-179 400-400 400h-3279l4160 4208 1-1c1313 1313 2498 2062 3660 2151 1146 87 2316-474 3622-1779l4579-4579h-3323c-221 0-400-179-400-400 0-221 179-400 400-400h4123l2666-2666c156-156 409-156 566 0 156 156 156 409 0 566l-2101 2101h6475c1847 0 3071-431 3819-1301 760-885 1068-2254 1068-4110h2l-34-5917-2568 2568c-156 156-409 156-566 0-156-156-156-409 0-566l3127-3127c-33-5746-31-11443 2-17189-4087-4041-8117-8068-12157-12154h-4193c-221 0-400-179-400-400 0-221 179-400 400-400h3402l-4141-4189c-7-6-13-12-20-18-1313-1313-2498-2062-3660-2151-1146-87-2316 474-3622 1779l-4579 4579h3024zM13737 8301h7275l5144-5144c1483-1483 2856-2116 4247-2010 1374 104 2719 934 4167 2382 8 8 15 15 22 23l4695 4749h6977c2096 0 3515 524 4425 1583 898 1045 1261 2582 1261 4629 0 13-1 25-2 37l-36 6373 4559 4508 1-1c1448 1448 2278 2792 2382 4167 106 1391-528 2764-2010 4247l-4934 4934 38 6710h2c0 2047-364 3584-1261 4629-910 1059-2329 1583-4425 1583h-7275l-5144 5144c-1483 1483-2856 2116-4247 2010-1374-104-2719-934-4167-2382l1-1-4718-4772h-6977c-2096 0-3515-524-4425-1583-898-1045-1261-2582-1261-4629h2l37-6410-4537-4485c-8-7-16-14-23-22-1448-1448-2278-2792-2382-4167-106-1391 528-2764 2010-4247l4934-4934-38-6672c-1-12-2-25-2-37 0-2047 364-3584 1261-4629 910-1059 2329-1583 4425-1583zM8141 30000l-44-7653-4374 4374c-1305 1305-1866 2476-1779 3622 88 1162 838 2348 2151 3660 6 6 13 13 18 20l3983 3937 45-7961zM8882 39860l-32 5627h2c0 1857 308 3226 1068 4110 748 871 1972 1301 3819 1301h6186l-5380-5442-5662-5597zM46264 9101h-6186l5380 5442 5662 5597 32-5594c-1-11-1-22-1-33 0-1857-308-3226-1068-4110-748-871-1972-1301-3819-1301zM51906 22039l-45 7961 44 7653 4374-4374c1305-1305 1866-2476 1779-3622-88-1163-838-2348-2151-3660l1-1-4002-3956z" fill="black" fill-rule="nonzero" stroke="none" stroke-width="1" stroke-linecap="butt" stroke-linejoin="miter" stroke-miterlimit="10" stroke-dasharray="" stroke-dashoffset="0" font-family="none" font-weight="none" font-size="none" text-anchor="none" style="mix-blend-mode: normal"></path></g><g transform="matrix(1,0,0,1,112,144.96482005333334)"><svg viewBox="0 0 224 70.07035989333332" height="70.07035989333332" width="224"><g><svg viewBox="0 0 224 70.07035989333332" height="70.07035989333332" width="224"><g><svg viewBox="0 0 224 70.07035989333332" height="70.07035989333332" width="224"><g transform="matrix(1,0,0,1,0,37.96369322666666)"><svg viewBox="0 0 224 32.10666666666666" height="32.10666666666666" width="224"><g id="SvgjsG1221"><svg viewBox="0 0 224 32.10666666666666" height="32.10666666666666" width="224" id="SvgjsSvg1220"><g><svg viewBox="0 0 224 32.10666666666666" height="32.10666666666666" width="224"><g transform="matrix(1,0,0,1,0,0)"><svg width="224" viewBox="1.6 -36.15 254.98 36.55" height="32.10666666666666" data-palette-color="url(#0b7f5cda-a08a-49dc-bc30-c34098795ddc)"></svg></g></svg></g></svg></g></svg></g><g transform="matrix(1,0,0,1,95.36077551980794,0)"><svg viewBox="0 0 33.278448960384104 33.27856" height="33.27856" width="33.278448960384104"><g><svg xmlns="http://www.w3.org/2000/svg" viewBox="0.00021354625035219232 0.00021354625035219232 63.99957290749929 63.99978645374965" x="0" y="0" height="33.27856" width="33.278448960384104" class="icon-icon-0" data-fill-palette-color="accent" id="SvgjsSvg1219"><g data-name="08-Innovate" fill="white"><path d="M43 27H41a9.01 9.01 0 0 0-9-9V16A11.013 11.013 0 0 1 43 27Z" fill="white"></path><path d="M32 38A11.013 11.013 0 0 1 21 27h2a9.011 9.011 0 0 0 9 9Z" fill="white"></path><path d="M37 45H27a1 1 0 0 1-1-1V41.818a16 16 0 1 1 12 0V44A1 1 0 0 1 37 45Zm-9-2h8V41.128a1 1 0 0 1 0.666-0.943 14 14 0 1 0-9.333 0 1 1 0 0 1 0.667 0.943Z" fill="white"></path><path d="M39 49H25a1 1 0 0 1-1-1V44a1 1 0 0 1 1-1H39a1 1 0 0 1 1 1v4A1 1 0 0 1 39 49ZM26 47H38V45H26Z" fill="white"></path><path d="M36 53H28a1 1 0 0 1-0.707-0.293l-2-2A1 1 0 0 1 25 50V48h2v1.586L28.414 51h7.172L37 49.586V48h2v2a1 1 0 0 1-0.293 0.707l-2 2A1 1 0 0 1 36 53Z" fill="white"></path><path d="M33 44H31V27a1 1 0 0 1 1-1h3V24h2v3a1 1 0 0 1-1 1H33Z" fill="white"></path><path d="M32 28H28a1 1 0 0 1-1-1V24h2v2h3Z" fill="white"></path><path d="M36 10H34V7a1 1 0 0 1 1-1h0.586L32 2.414 28.414 6H29a1 1 0 0 1 1 1v3H28V8H26a1 1 0 0 1-0.707-1.707l6-6a1 1 0 0 1 1.414 0l6 6A1 1 0 0 1 38 8H36Z" fill="white"></path><path d="M32 64a1 1 0 0 1-0.707-0.293l-6-6A1 1 0 0 1 26 56h2V54h2v3a1 1 0 0 1-1 1h-0.586L32 61.586 35.586 58H35a1 1 0 0 1-1-1V54h2v2h2a1 1 0 0 1 0.707 1.707l-6 6A1 1 0 0 1 32 64Z" fill="white"></path><path d="M57 39a1 1 0 0 1-1-1V36H48V34h9a1 1 0 0 1 1 1v0.586L61.586 32 58 28.414V29a1 1 0 0 1-1 1H50V28h6V26a1 1 0 0 1 1.707-0.707l6 6a1 1 0 0 1 0 1.414l-6 6A1 1 0 0 1 57 39Z" fill="white"></path><path d="M7 39a1 1 0 0 1-0.707-0.293l-6-6a1 1 0 0 1 0-1.414l6-6A1 1 0 0 1 8 26v2h6v2H7a1 1 0 0 1-1-1v-0.586L2.414 32 6 35.586V35a1 1 0 0 1 1-1h9v2H8v2a1 1 0 0 1-1 1Z" fill="white"></path><path d="M54 54H45a1 1 0 0 1-0.707-1.707L45.586 51l-4.293-4.293 1.414-1.414 5 5a1 1 0 0 1 0 1.414L47.414 52H53V46.414l-0.293 0.293a1 1 0 0 1-1.414 0l-7-7 1.414-1.414L52 44.586l1.293-1.293A1 1 0 0 1 55 44v9A1 1 0 0 1 54 54Z" fill="white"></path><path d="M19 54H10a1 1 0 0 1-1-1V44a1 1 0 0 1 1.707-0.707L12 44.586l6.293-6.293 1.414 1.414-7 7a1 1 0 0 1-1.414 0L11 46.414V52h5.586l-0.293-0.293a1 1 0 0 1 0-1.414l5-5 1.414 1.414L18.414 51l1.293 1.293A1 1 0 0 1 19 54Z" fill="white"></path><path d="M48.707 18.707l-1.414-1.414 4-4a1 1 0 0 1 1.414 0l0.293 0.293V8H47.414l0.293 0.293a1 1 0 0 1 0 1.414l-4 4-1.414-1.414L45.586 9 44.293 7.707A1 1 0 0 1 45 6h9a1 1 0 0 1 1 1v9a1 1 0 0 1-1.707 0.707L52 15.414Z" fill="white"></path><path d="M15.293 18.707L12 15.414l-1.293 1.293A1 1 0 0 1 9 16V7a1 1 0 0 1 1-1h9a1 1 0 0 1 0.707 1.707L18.414 9l3.293 3.293-1.414 1.414-4-4a1 1 0 0 1 0-1.414L16.586 8H11v5.586l0.293-0.293a1 1 0 0 1 1.414 0l4 4Z" fill="white"></path></g></svg></g></svg></g><g></g></svg></g></svg></g></svg></g></svg></g><defs><mask></mask></defs><mask><g id="SvgjsG1218"><svg viewBox="0 0 448 360" height="360" width="448"><g><svg></svg></g><g><svg viewBox="0 0 448 360" height="360" width="448"><g><path transform="translate(36.9151,-7.08178) scale(0.00624,0.00624)" d="M25167 8301c221 0 400 179 400 400 0 221-179 400-400 400h-3824l-2753 2753c-156 156-409 156-566 0-156-156-156-409 0-566l2188-2188h-6475c-1847 0-3071 431-3819 1301-760 885-1068 2254-1068 4110 0 11 0 22-1 33l34 5884 2356-2356c156-156 409-156 566 0 156 156 156 409 0 566l-2915 2915c33 5746 31 11443-2 17189 4087 4041 8117 8068 12157 12154h4070c221 0 400 179 400 400 0 221-179 400-400 400h-3279l4160 4208 1-1c1313 1313 2498 2062 3660 2151 1146 87 2316-474 3622-1779l4579-4579h-3323c-221 0-400-179-400-400 0-221 179-400 400-400h4123l2666-2666c156-156 409-156 566 0 156 156 156 409 0 566l-2101 2101h6475c1847 0 3071-431 3819-1301 760-885 1068-2254 1068-4110h2l-34-5917-2568 2568c-156 156-409 156-566 0-156-156-156-409 0-566l3127-3127c-33-5746-31-11443 2-17189-4087-4041-8117-8068-12157-12154h-4193c-221 0-400-179-400-400 0-221 179-400 400-400h3402l-4141-4189c-7-6-13-12-20-18-1313-1313-2498-2062-3660-2151-1146-87-2316 474-3622 1779l-4579 4579h3024zM13737 8301h7275l5144-5144c1483-1483 2856-2116 4247-2010 1374 104 2719 934 4167 2382 8 8 15 15 22 23l4695 4749h6977c2096 0 3515 524 4425 1583 898 1045 1261 2582 1261 4629 0 13-1 25-2 37l-36 6373 4559 4508 1-1c1448 1448 2278 2792 2382 4167 106 1391-528 2764-2010 4247l-4934 4934 38 6710h2c0 2047-364 3584-1261 4629-910 1059-2329 1583-4425 1583h-7275l-5144 5144c-1483 1483-2856 2116-4247 2010-1374-104-2719-934-4167-2382l1-1-4718-4772h-6977c-2096 0-3515-524-4425-1583-898-1045-1261-2582-1261-4629h2l37-6410-4537-4485c-8-7-16-14-23-22-1448-1448-2278-2792-2382-4167-106-1391 528-2764 2010-4247l4934-4934-38-6672c-1-12-2-25-2-37 0-2047 364-3584 1261-4629 910-1059 2329-1583 4425-1583zM8141 30000l-44-7653-4374 4374c-1305 1305-1866 2476-1779 3622 88 1162 838 2348 2151 3660 6 6 13 13 18 20l3983 3937 45-7961zM8882 39860l-32 5627h2c0 1857 308 3226 1068 4110 748 871 1972 1301 3819 1301h6186l-5380-5442-5662-5597zM46264 9101h-6186l5380 5442 5662 5597 32-5594c-1-11-1-22-1-33 0-1857-308-3226-1068-4110-748-871-1972-1301-3819-1301zM51906 22039l-45 7961 44 7653 4374-4374c1305-1305 1866-2476 1779-3622-88-1163-838-2348-2151-3660l1-1-4002-3956z" fill="black" fill-rule="nonzero" stroke="none" stroke-width="1" stroke-linecap="butt" stroke-linejoin="miter" stroke-miterlimit="10" stroke-dasharray="" stroke-dashoffset="0" font-family="none" font-weight="none" font-size="none" text-anchor="none" style="mix-blend-mode: normal"></path></g><g transform="matrix(1,0,0,1,112,144.96482005333334)"><svg viewBox="0 0 224 70.07035989333332" height="70.07035989333332" width="224"><g><svg viewBox="0 0 224 70.07035989333332" height="70.07035989333332" width="224"><g><svg viewBox="0 0 224 70.07035989333332" height="70.07035989333332" width="224"><g transform="matrix(1,0,0,1,0,37.96369322666666)"><svg viewBox="0 0 224 32.10666666666666" height="32.10666666666666" width="224"><g id="SvgjsG1217"><svg viewBox="0 0 224 32.10666666666666" height="32.10666666666666" width="224" id="SvgjsSvg1216"><g><svg viewBox="0 0 224 32.10666666666666" height="32.10666666666666" width="224"><g transform="matrix(1,0,0,1,0,0)"><svg width="224" viewBox="1.6 -36.15 254.98 36.55" height="32.10666666666666" data-palette-color="url(#0b7f5cda-a08a-49dc-bc30-c34098795ddc)"><path d="M2.1-34.5L13.8-34.5 14.3-30.35Q13.5-29.4 11.55-28.65L11.55-28.65 11.55-5.8Q13.55-5 14.3-4.15L14.3-4.15 13.8 0 2.1 0 1.6-4.15Q2.25-5 4.35-5.8L4.35-5.8 4.35-28.65Q2.3-29.4 1.6-30.35L1.6-30.35 2.1-34.5ZM17.2-21.15L17.7-25Q20.45-25.6 22.65-25.6 24.85-25.6 26.3-25.5L26.3-25.5 26.3-23Q27.55-24.05 29.62-24.73 31.7-25.4 33.6-25.4L33.6-25.4Q38.5-25.4 40.47-23.1 42.45-20.8 42.45-15.15L42.45-15.15 42.45-5.55Q44.4-4.8 45.2-3.85L45.2-3.85 44.7 0 33.2 0 32.7-3.85Q33.4-4.8 35.45-5.55L35.45-5.55 35.45-15.45Q35.45-18.15 34.57-19.07 33.7-20 31.45-20 29.2-20 26.95-18.4L26.95-18.4 26.95-5.55Q28.9-4.8 29.7-3.85L29.7-3.85 29.2 0 17.7 0 17.2-3.85Q17.9-4.8 19.95-5.55L19.95-5.55 19.95-19.45Q18.2-20.05 17.2-21.15L17.2-21.15ZM46.95-21.15L47.45-25Q50.2-25.6 52.4-25.6 54.6-25.6 56.05-25.5L56.05-25.5 56.05-23Q57.3-24.05 59.37-24.73 61.45-25.4 63.34-25.4L63.34-25.4Q68.25-25.4 70.22-23.1 72.2-20.8 72.2-15.15L72.2-15.15 72.2-5.55Q74.15-4.8 74.95-3.85L74.95-3.85 74.45 0 62.95 0 62.45-3.85Q63.15-4.8 65.2-5.55L65.2-5.55 65.2-15.45Q65.2-18.15 64.32-19.07 63.45-20 61.2-20 58.95-20 56.7-18.4L56.7-18.4 56.7-5.55Q58.65-4.8 59.45-3.85L59.45-3.85 58.95 0 47.45 0 46.95-3.85Q47.65-4.8 49.7-5.55L49.7-5.55 49.7-19.45Q47.95-20.05 46.95-21.15L46.95-21.15ZM88.27 0.4Q82.34 0.4 79.49-2.75 76.64-5.9 76.64-12.28 76.64-18.65 79.82-22.03 82.99-25.4 88.94-25.4 94.89-25.4 97.77-22.4 100.64-19.4 100.64-13.03 100.64-6.65 97.42-3.13 94.19 0.4 88.27 0.4ZM83.84-12.7L83.84-12.7Q83.84-4.7 88.64-4.7L88.64-4.7Q91.09-4.7 92.27-6.53 93.44-8.35 93.44-12.5L93.44-12.5Q93.44-20.3 88.54-20.3L88.54-20.3Q86.14-20.3 84.99-18.57 83.84-16.85 83.84-12.7ZM126.74-19.2L118.49 0.3 112.99 0.3 104.79-19.2Q102.29-20 101.44-21.15L101.44-21.15 101.94-25 113.44-25 113.94-21.15Q113.29-20.35 111.79-19.7L111.79-19.7 114.49-12.15Q115.39-9.8 115.79-7.5L115.79-7.5 115.89-6.8 116.59-6.8Q116.99-9.3 117.99-12.05L117.99-12.05 120.64-19.45Q118.79-20.15 118.04-21.15L118.04-21.15 118.54-25 129.54-25 130.04-21.15Q129.14-20 126.74-19.2L126.74-19.2ZM132.29-21.3L132.29-21.3Q132.29-22.05 132.34-22.9L132.34-22.9Q136.99-25.4 142.34-25.4 147.69-25.4 150.01-23.38 152.34-21.35 152.34-16.65L152.34-16.65 152.34-6Q154.09-5.65 155.09-5.15L155.09-5.15 155.09-0.8Q152.54 0.4 147.79 0.4L147.79 0.4Q147.29-0.9 146.94-2.75L146.94-2.75Q144.79 0.4 139.14 0.4L139.14 0.4Q135.79 0.4 133.41-1.55 131.04-3.5 131.04-6.85 131.04-10.2 133.26-12.13 135.49-14.05 139.89-14.05L139.89-14.05 145.34-14.05 145.34-16.45Q145.34-20.35 141.19-20.35L141.19-20.35Q139.64-20.35 138.64-20.05L138.64-20.05Q138.54-17.95 138.04-16.8L138.04-16.8 133.14-16.8Q132.29-18.55 132.29-21.3ZM141.29-4.7L141.29-4.7Q143.84-4.7 145.34-6.2L145.34-6.2 145.34-10.3 141.84-10.3Q138.24-10.3 138.24-7.55L138.24-7.55Q138.24-6.3 139.01-5.5 139.79-4.7 141.29-4.7ZM152.84-34.45L180.84-34.45 180.84-27.3 177.69-26.9Q177.03-27.4 176.44-29L176.44-29 170.44-29 170.44-5.8Q172.44-5 173.19-4.15L173.19-4.15 172.69 0 160.99 0 160.49-4.15Q161.13-5 163.24-5.8L163.24-5.8 163.24-29 157.24-29Q156.63-27.4 155.99-26.9L155.99-26.9 152.84-27.3 152.84-34.45ZM194.53 0.4L194.53 0.4Q188.53 0.4 185.51-2.8 182.48-6 182.48-12.1L182.48-12.1Q182.48-15.8 183.53-18.48 184.58-21.15 186.38-22.6L186.38-22.6Q189.88-25.4 194.53-25.4 199.18-25.4 201.66-23.03 204.13-20.65 204.13-14.5L204.13-14.5Q204.13-10.9 200.58-10.9L200.58-10.9 189.73-10.9Q189.93-7.75 191.36-6.45 192.78-5.15 195.88-5.15L195.88-5.15Q197.58-5.15 199.13-5.55 200.68-5.95 201.38-6.35L201.38-6.35 202.08-6.75 203.58-2.75Q203.28-2.4 202.71-1.88 202.13-1.35 199.81-0.48 197.48 0.4 194.53 0.4ZM189.78-15.05L197.68-15.35Q197.78-16.05 197.78-17.05 197.78-18.05 196.98-19.18 196.18-20.3 194.21-20.3 192.23-20.3 191.18-19.1 190.13-17.9 189.78-15.05L189.78-15.05ZM218.43-20.3L218.43-20.3Q213.83-20.3 213.83-12.4L213.83-12.4Q213.83-8.4 215.11-6.83 216.38-5.25 218.78-5.25L218.78-5.25Q222.58-5.25 225.48-5.95L225.48-5.95 226.98-2.1Q225.38-1.05 222.68-0.33 219.98 0.4 217.43 0.4L217.43 0.4Q206.63 0.4 206.63-12.1L206.63-12.1Q206.63-19.4 210.38-22.6L210.38-22.6Q213.73-25.4 218.53-25.4 223.33-25.4 226.53-23.6L226.53-23.6Q226.58-23.1 226.58-22.65L226.58-22.65Q226.58-19.8 225.28-17.25L225.28-17.25 220.88-17.25Q220.18-18.5 220.03-20.25L220.03-20.25Q219.43-20.3 218.43-20.3ZM228.58-31.65L229.08-35.5Q231.88-36.15 234.28-36.15 236.68-36.15 238.33-36L238.33-36 238.33-23.5Q239.53-24.3 241.53-24.85 243.53-25.4 245.08-25.4L245.08-25.4Q250.03-25.4 251.93-23 253.83-20.6 253.83-15.7L253.83-15.7 253.83-5.55Q255.78-4.8 256.58-3.85L256.58-3.85 256.08 0 244.58 0 244.08-3.85Q244.78-4.8 246.83-5.55L246.83-5.55 246.83-15.45Q246.83-18.15 245.95-19.07 245.08-20 242.78-20 240.48-20 238.33-18.4L238.33-18.4 238.33-5.55Q240.28-4.8 241.08-3.85L241.08-3.85 240.58 0 229.08 0 228.58-3.85Q229.28-4.8 231.33-5.55L231.33-5.55 231.33-29.95Q229.58-30.55 228.58-31.65L228.58-31.65Z" opacity="1" transform="matrix(1,0,0,1,0,0)" fill="black" class="wordmark-text-0" id="SvgjsPath1215"></path></svg></g></svg></g></svg></g></svg></g><g transform="matrix(1,0,0,1,95.36077551980794,0)"><svg viewBox="0 0 33.278448960384104 33.27856" height="33.27856" width="33.278448960384104"><g><svg xmlns="http://www.w3.org/2000/svg" viewBox="0.00021354625035219232 0.00021354625035219232 63.99957290749929 63.99978645374965" x="0" y="0" height="33.27856" width="33.278448960384104" class="icon-icon-0" data-fill-palette-color="accent" id="SvgjsSvg1214"><g data-name="08-Innovate" fill="black"><path d="M43 27H41a9.01 9.01 0 0 0-9-9V16A11.013 11.013 0 0 1 43 27Z" fill="black"></path><path d="M32 38A11.013 11.013 0 0 1 21 27h2a9.011 9.011 0 0 0 9 9Z" fill="black"></path><path d="M37 45H27a1 1 0 0 1-1-1V41.818a16 16 0 1 1 12 0V44A1 1 0 0 1 37 45Zm-9-2h8V41.128a1 1 0 0 1 0.666-0.943 14 14 0 1 0-9.333 0 1 1 0 0 1 0.667 0.943Z" fill="black"></path><path d="M39 49H25a1 1 0 0 1-1-1V44a1 1 0 0 1 1-1H39a1 1 0 0 1 1 1v4A1 1 0 0 1 39 49ZM26 47H38V45H26Z" fill="black"></path><path d="M36 53H28a1 1 0 0 1-0.707-0.293l-2-2A1 1 0 0 1 25 50V48h2v1.586L28.414 51h7.172L37 49.586V48h2v2a1 1 0 0 1-0.293 0.707l-2 2A1 1 0 0 1 36 53Z" fill="black"></path><path d="M33 44H31V27a1 1 0 0 1 1-1h3V24h2v3a1 1 0 0 1-1 1H33Z" fill="black"></path><path d="M32 28H28a1 1 0 0 1-1-1V24h2v2h3Z" fill="black"></path><path d="M36 10H34V7a1 1 0 0 1 1-1h0.586L32 2.414 28.414 6H29a1 1 0 0 1 1 1v3H28V8H26a1 1 0 0 1-0.707-1.707l6-6a1 1 0 0 1 1.414 0l6 6A1 1 0 0 1 38 8H36Z" fill="black"></path><path d="M32 64a1 1 0 0 1-0.707-0.293l-6-6A1 1 0 0 1 26 56h2V54h2v3a1 1 0 0 1-1 1h-0.586L32 61.586 35.586 58H35a1 1 0 0 1-1-1V54h2v2h2a1 1 0 0 1 0.707 1.707l-6 6A1 1 0 0 1 32 64Z" fill="black"></path><path d="M57 39a1 1 0 0 1-1-1V36H48V34h9a1 1 0 0 1 1 1v0.586L61.586 32 58 28.414V29a1 1 0 0 1-1 1H50V28h6V26a1 1 0 0 1 1.707-0.707l6 6a1 1 0 0 1 0 1.414l-6 6A1 1 0 0 1 57 39Z" fill="black"></path><path d="M7 39a1 1 0 0 1-0.707-0.293l-6-6a1 1 0 0 1 0-1.414l6-6A1 1 0 0 1 8 26v2h6v2H7a1 1 0 0 1-1-1v-0.586L2.414 32 6 35.586V35a1 1 0 0 1 1-1h9v2H8v2a1 1 0 0 1-1 1Z" fill="black"></path><path d="M54 54H45a1 1 0 0 1-0.707-1.707L45.586 51l-4.293-4.293 1.414-1.414 5 5a1 1 0 0 1 0 1.414L47.414 52H53V46.414l-0.293 0.293a1 1 0 0 1-1.414 0l-7-7 1.414-1.414L52 44.586l1.293-1.293A1 1 0 0 1 55 44v9A1 1 0 0 1 54 54Z" fill="black"></path><path d="M19 54H10a1 1 0 0 1-1-1V44a1 1 0 0 1 1.707-0.707L12 44.586l6.293-6.293 1.414 1.414-7 7a1 1 0 0 1-1.414 0L11 46.414V52h5.586l-0.293-0.293a1 1 0 0 1 0-1.414l5-5 1.414 1.414L18.414 51l1.293 1.293A1 1 0 0 1 19 54Z" fill="black"></path><path d="M48.707 18.707l-1.414-1.414 4-4a1 1 0 0 1 1.414 0l0.293 0.293V8H47.414l0.293 0.293a1 1 0 0 1 0 1.414l-4 4-1.414-1.414L45.586 9 44.293 7.707A1 1 0 0 1 45 6h9a1 1 0 0 1 1 1v9a1 1 0 0 1-1.707 0.707L52 15.414Z" fill="black"></path><path d="M15.293 18.707L12 15.414l-1.293 1.293A1 1 0 0 1 9 16V7a1 1 0 0 1 1-1h9a1 1 0 0 1 0.707 1.707L18.414 9l3.293 3.293-1.414 1.414-4-4a1 1 0 0 1 0-1.414L16.586 8H11v5.586l0.293-0.293a1 1 0 0 1 1.414 0l4 4Z" fill="black"></path></g></svg></g></svg></g><g></g></svg></g></svg></g></svg></g></svg></g><defs><mask></mask></defs></svg><rect width="448" height="360" fill="black" stroke="none" visibility="hidden"></rect></g></mask></svg><rect width="448" height="360" fill="black" stroke="none" visibility="hidden"></rect></g></mask><linearGradient x1="0" x2="1" y1="0.548" y2="0.55" id="738247b3-108a-45c0-8ef3-56bdc4bd12bb"><stop stop-color="#ff6cab" offset="0"></stop><stop stop-color="#7366ff" offset="1"></stop></linearGradient><rect width="448" height="360.2380828009308" fill="#000000" mask="url(#a40bde1b-42e4-45e5-b8aa-51f333589148)" data-fill-palette-color="accent"></rect><mask id="2d660998-4675-4612-a4e6-15142e23b4fe"><g id="SvgjsG1240"><svg viewBox="0 0 448 360" height="360" width="448"><g><svg></svg></g><g><svg viewBox="0 0 448 360" height="360" width="448"><g><path transform="translate(36.9151,-7.08178) scale(0.00624,0.00624)" d="M25167 8301c221 0 400 179 400 400 0 221-179 400-400 400h-3824l-2753 2753c-156 156-409 156-566 0-156-156-156-409 0-566l2188-2188h-6475c-1847 0-3071 431-3819 1301-760 885-1068 2254-1068 4110 0 11 0 22-1 33l34 5884 2356-2356c156-156 409-156 566 0 156 156 156 409 0 566l-2915 2915c33 5746 31 11443-2 17189 4087 4041 8117 8068 12157 12154h4070c221 0 400 179 400 400 0 221-179 400-400 400h-3279l4160 4208 1-1c1313 1313 2498 2062 3660 2151 1146 87 2316-474 3622-1779l4579-4579h-3323c-221 0-400-179-400-400 0-221 179-400 400-400h4123l2666-2666c156-156 409-156 566 0 156 156 156 409 0 566l-2101 2101h6475c1847 0 3071-431 3819-1301 760-885 1068-2254 1068-4110h2l-34-5917-2568 2568c-156 156-409 156-566 0-156-156-156-409 0-566l3127-3127c-33-5746-31-11443 2-17189-4087-4041-8117-8068-12157-12154h-4193c-221 0-400-179-400-400 0-221 179-400 400-400h3402l-4141-4189c-7-6-13-12-20-18-1313-1313-2498-2062-3660-2151-1146-87-2316 474-3622 1779l-4579 4579h3024zM13737 8301h7275l5144-5144c1483-1483 2856-2116 4247-2010 1374 104 2719 934 4167 2382 8 8 15 15 22 23l4695 4749h6977c2096 0 3515 524 4425 1583 898 1045 1261 2582 1261 4629 0 13-1 25-2 37l-36 6373 4559 4508 1-1c1448 1448 2278 2792 2382 4167 106 1391-528 2764-2010 4247l-4934 4934 38 6710h2c0 2047-364 3584-1261 4629-910 1059-2329 1583-4425 1583h-7275l-5144 5144c-1483 1483-2856 2116-4247 2010-1374-104-2719-934-4167-2382l1-1-4718-4772h-6977c-2096 0-3515-524-4425-1583-898-1045-1261-2582-1261-4629h2l37-6410-4537-4485c-8-7-16-14-23-22-1448-1448-2278-2792-2382-4167-106-1391 528-2764 2010-4247l4934-4934-38-6672c-1-12-2-25-2-37 0-2047 364-3584 1261-4629 910-1059 2329-1583 4425-1583zM8141 30000l-44-7653-4374 4374c-1305 1305-1866 2476-1779 3622 88 1162 838 2348 2151 3660 6 6 13 13 18 20l3983 3937 45-7961zM8882 39860l-32 5627h2c0 1857 308 3226 1068 4110 748 871 1972 1301 3819 1301h6186l-5380-5442-5662-5597zM46264 9101h-6186l5380 5442 5662 5597 32-5594c-1-11-1-22-1-33 0-1857-308-3226-1068-4110-748-871-1972-1301-3819-1301zM51906 22039l-45 7961 44 7653 4374-4374c1305-1305 1866-2476 1779-3622-88-1163-838-2348-2151-3660l1-1-4002-3956z" fill="white" fill-rule="nonzero" stroke="none" stroke-width="1" stroke-linecap="butt" stroke-linejoin="miter" stroke-miterlimit="10" stroke-dasharray="" stroke-dashoffset="0" font-family="none" font-weight="none" font-size="none" text-anchor="none" style="mix-blend-mode: normal"></path></g><g transform="matrix(1,0,0,1,112,144.96482005333334)"><svg viewBox="0 0 224 70.07035989333332" height="70.07035989333332" width="224"><g><svg viewBox="0 0 224 70.07035989333332" height="70.07035989333332" width="224"><g><svg viewBox="0 0 224 70.07035989333332" height="70.07035989333332" width="224"><g transform="matrix(1,0,0,1,0,37.96369322666666)"><svg viewBox="0 0 224 32.10666666666666" height="32.10666666666666" width="224"><g id="SvgjsG1239"><svg viewBox="0 0 224 32.10666666666666" height="32.10666666666666" width="224" id="SvgjsSvg1238"><g><svg viewBox="0 0 224 32.10666666666666" height="32.10666666666666" width="224"><g transform="matrix(1,0,0,1,0,0)"><svg width="224" viewBox="1.6 -36.15 254.98 36.55" height="32.10666666666666" data-palette-color="url(#0b7f5cda-a08a-49dc-bc30-c34098795ddc)"></svg></g></svg></g></svg></g></svg></g><g transform="matrix(1,0,0,1,95.36077551980794,0)"><svg viewBox="0 0 33.278448960384104 33.27856" height="33.27856" width="33.278448960384104"><g><svg xmlns="http://www.w3.org/2000/svg" viewBox="0.00021354625035219232 0.00021354625035219232 63.99957290749929 63.99978645374965" x="0" y="0" height="33.27856" width="33.278448960384104" class="icon-icon-0" data-fill-palette-color="accent" id="SvgjsSvg1237"></svg></g></svg></g><g></g></svg></g></svg></g></svg></g></svg></g><defs><mask></mask></defs><mask><g id="SvgjsG1236"><svg viewBox="0 0 448 360" height="360" width="448"><g><svg></svg></g><g><svg viewBox="0 0 448 360" height="360" width="448"><g><path transform="translate(36.9151,-7.08178) scale(0.00624,0.00624)" d="M25167 8301c221 0 400 179 400 400 0 221-179 400-400 400h-3824l-2753 2753c-156 156-409 156-566 0-156-156-156-409 0-566l2188-2188h-6475c-1847 0-3071 431-3819 1301-760 885-1068 2254-1068 4110 0 11 0 22-1 33l34 5884 2356-2356c156-156 409-156 566 0 156 156 156 409 0 566l-2915 2915c33 5746 31 11443-2 17189 4087 4041 8117 8068 12157 12154h4070c221 0 400 179 400 400 0 221-179 400-400 400h-3279l4160 4208 1-1c1313 1313 2498 2062 3660 2151 1146 87 2316-474 3622-1779l4579-4579h-3323c-221 0-400-179-400-400 0-221 179-400 400-400h4123l2666-2666c156-156 409-156 566 0 156 156 156 409 0 566l-2101 2101h6475c1847 0 3071-431 3819-1301 760-885 1068-2254 1068-4110h2l-34-5917-2568 2568c-156 156-409 156-566 0-156-156-156-409 0-566l3127-3127c-33-5746-31-11443 2-17189-4087-4041-8117-8068-12157-12154h-4193c-221 0-400-179-400-400 0-221 179-400 400-400h3402l-4141-4189c-7-6-13-12-20-18-1313-1313-2498-2062-3660-2151-1146-87-2316 474-3622 1779l-4579 4579h3024zM13737 8301h7275l5144-5144c1483-1483 2856-2116 4247-2010 1374 104 2719 934 4167 2382 8 8 15 15 22 23l4695 4749h6977c2096 0 3515 524 4425 1583 898 1045 1261 2582 1261 4629 0 13-1 25-2 37l-36 6373 4559 4508 1-1c1448 1448 2278 2792 2382 4167 106 1391-528 2764-2010 4247l-4934 4934 38 6710h2c0 2047-364 3584-1261 4629-910 1059-2329 1583-4425 1583h-7275l-5144 5144c-1483 1483-2856 2116-4247 2010-1374-104-2719-934-4167-2382l1-1-4718-4772h-6977c-2096 0-3515-524-4425-1583-898-1045-1261-2582-1261-4629h2l37-6410-4537-4485c-8-7-16-14-23-22-1448-1448-2278-2792-2382-4167-106-1391 528-2764 2010-4247l4934-4934-38-6672c-1-12-2-25-2-37 0-2047 364-3584 1261-4629 910-1059 2329-1583 4425-1583zM8141 30000l-44-7653-4374 4374c-1305 1305-1866 2476-1779 3622 88 1162 838 2348 2151 3660 6 6 13 13 18 20l3983 3937 45-7961zM8882 39860l-32 5627h2c0 1857 308 3226 1068 4110 748 871 1972 1301 3819 1301h6186l-5380-5442-5662-5597zM46264 9101h-6186l5380 5442 5662 5597 32-5594c-1-11-1-22-1-33 0-1857-308-3226-1068-4110-748-871-1972-1301-3819-1301zM51906 22039l-45 7961 44 7653 4374-4374c1305-1305 1866-2476 1779-3622-88-1163-838-2348-2151-3660l1-1-4002-3956z" fill="black" fill-rule="nonzero" stroke="none" stroke-width="1" stroke-linecap="butt" stroke-linejoin="miter" stroke-miterlimit="10" stroke-dasharray="" stroke-dashoffset="0" font-family="none" font-weight="none" font-size="none" text-anchor="none" style="mix-blend-mode: normal"></path></g><g transform="matrix(1,0,0,1,112,144.96482005333334)"><svg viewBox="0 0 224 70.07035989333332" height="70.07035989333332" width="224"><g><svg viewBox="0 0 224 70.07035989333332" height="70.07035989333332" width="224"><g><svg viewBox="0 0 224 70.07035989333332" height="70.07035989333332" width="224"><g transform="matrix(1,0,0,1,0,37.96369322666666)"><svg viewBox="0 0 224 32.10666666666666" height="32.10666666666666" width="224"><g id="SvgjsG1235"><svg viewBox="0 0 224 32.10666666666666" height="32.10666666666666" width="224" id="SvgjsSvg1234"><g><svg viewBox="0 0 224 32.10666666666666" height="32.10666666666666" width="224"><g transform="matrix(1,0,0,1,0,0)"><svg width="224" viewBox="1.6 -36.15 254.98 36.55" height="32.10666666666666" data-palette-color="url(#0b7f5cda-a08a-49dc-bc30-c34098795ddc)"><path d="M2.1-34.5L13.8-34.5 14.3-30.35Q13.5-29.4 11.55-28.65L11.55-28.65 11.55-5.8Q13.55-5 14.3-4.15L14.3-4.15 13.8 0 2.1 0 1.6-4.15Q2.25-5 4.35-5.8L4.35-5.8 4.35-28.65Q2.3-29.4 1.6-30.35L1.6-30.35 2.1-34.5ZM17.2-21.15L17.7-25Q20.45-25.6 22.65-25.6 24.85-25.6 26.3-25.5L26.3-25.5 26.3-23Q27.55-24.05 29.62-24.73 31.7-25.4 33.6-25.4L33.6-25.4Q38.5-25.4 40.47-23.1 42.45-20.8 42.45-15.15L42.45-15.15 42.45-5.55Q44.4-4.8 45.2-3.85L45.2-3.85 44.7 0 33.2 0 32.7-3.85Q33.4-4.8 35.45-5.55L35.45-5.55 35.45-15.45Q35.45-18.15 34.57-19.07 33.7-20 31.45-20 29.2-20 26.95-18.4L26.95-18.4 26.95-5.55Q28.9-4.8 29.7-3.85L29.7-3.85 29.2 0 17.7 0 17.2-3.85Q17.9-4.8 19.95-5.55L19.95-5.55 19.95-19.45Q18.2-20.05 17.2-21.15L17.2-21.15ZM46.95-21.15L47.45-25Q50.2-25.6 52.4-25.6 54.6-25.6 56.05-25.5L56.05-25.5 56.05-23Q57.3-24.05 59.37-24.73 61.45-25.4 63.34-25.4L63.34-25.4Q68.25-25.4 70.22-23.1 72.2-20.8 72.2-15.15L72.2-15.15 72.2-5.55Q74.15-4.8 74.95-3.85L74.95-3.85 74.45 0 62.95 0 62.45-3.85Q63.15-4.8 65.2-5.55L65.2-5.55 65.2-15.45Q65.2-18.15 64.32-19.07 63.45-20 61.2-20 58.95-20 56.7-18.4L56.7-18.4 56.7-5.55Q58.65-4.8 59.45-3.85L59.45-3.85 58.95 0 47.45 0 46.95-3.85Q47.65-4.8 49.7-5.55L49.7-5.55 49.7-19.45Q47.95-20.05 46.95-21.15L46.95-21.15ZM88.27 0.4Q82.34 0.4 79.49-2.75 76.64-5.9 76.64-12.28 76.64-18.65 79.82-22.03 82.99-25.4 88.94-25.4 94.89-25.4 97.77-22.4 100.64-19.4 100.64-13.03 100.64-6.65 97.42-3.13 94.19 0.4 88.27 0.4ZM83.84-12.7L83.84-12.7Q83.84-4.7 88.64-4.7L88.64-4.7Q91.09-4.7 92.27-6.53 93.44-8.35 93.44-12.5L93.44-12.5Q93.44-20.3 88.54-20.3L88.54-20.3Q86.14-20.3 84.99-18.57 83.84-16.85 83.84-12.7ZM126.74-19.2L118.49 0.3 112.99 0.3 104.79-19.2Q102.29-20 101.44-21.15L101.44-21.15 101.94-25 113.44-25 113.94-21.15Q113.29-20.35 111.79-19.7L111.79-19.7 114.49-12.15Q115.39-9.8 115.79-7.5L115.79-7.5 115.89-6.8 116.59-6.8Q116.99-9.3 117.99-12.05L117.99-12.05 120.64-19.45Q118.79-20.15 118.04-21.15L118.04-21.15 118.54-25 129.54-25 130.04-21.15Q129.14-20 126.74-19.2L126.74-19.2ZM132.29-21.3L132.29-21.3Q132.29-22.05 132.34-22.9L132.34-22.9Q136.99-25.4 142.34-25.4 147.69-25.4 150.01-23.38 152.34-21.35 152.34-16.65L152.34-16.65 152.34-6Q154.09-5.65 155.09-5.15L155.09-5.15 155.09-0.8Q152.54 0.4 147.79 0.4L147.79 0.4Q147.29-0.9 146.94-2.75L146.94-2.75Q144.79 0.4 139.14 0.4L139.14 0.4Q135.79 0.4 133.41-1.55 131.04-3.5 131.04-6.85 131.04-10.2 133.26-12.13 135.49-14.05 139.89-14.05L139.89-14.05 145.34-14.05 145.34-16.45Q145.34-20.35 141.19-20.35L141.19-20.35Q139.64-20.35 138.64-20.05L138.64-20.05Q138.54-17.95 138.04-16.8L138.04-16.8 133.14-16.8Q132.29-18.55 132.29-21.3ZM141.29-4.7L141.29-4.7Q143.84-4.7 145.34-6.2L145.34-6.2 145.34-10.3 141.84-10.3Q138.24-10.3 138.24-7.55L138.24-7.55Q138.24-6.3 139.01-5.5 139.79-4.7 141.29-4.7ZM152.84-34.45L180.84-34.45 180.84-27.3 177.69-26.9Q177.03-27.4 176.44-29L176.44-29 170.44-29 170.44-5.8Q172.44-5 173.19-4.15L173.19-4.15 172.69 0 160.99 0 160.49-4.15Q161.13-5 163.24-5.8L163.24-5.8 163.24-29 157.24-29Q156.63-27.4 155.99-26.9L155.99-26.9 152.84-27.3 152.84-34.45ZM194.53 0.4L194.53 0.4Q188.53 0.4 185.51-2.8 182.48-6 182.48-12.1L182.48-12.1Q182.48-15.8 183.53-18.48 184.58-21.15 186.38-22.6L186.38-22.6Q189.88-25.4 194.53-25.4 199.18-25.4 201.66-23.03 204.13-20.65 204.13-14.5L204.13-14.5Q204.13-10.9 200.58-10.9L200.58-10.9 189.73-10.9Q189.93-7.75 191.36-6.45 192.78-5.15 195.88-5.15L195.88-5.15Q197.58-5.15 199.13-5.55 200.68-5.95 201.38-6.35L201.38-6.35 202.08-6.75 203.58-2.75Q203.28-2.4 202.71-1.88 202.13-1.35 199.81-0.48 197.48 0.4 194.53 0.4ZM189.78-15.05L197.68-15.35Q197.78-16.05 197.78-17.05 197.78-18.05 196.98-19.18 196.18-20.3 194.21-20.3 192.23-20.3 191.18-19.1 190.13-17.9 189.78-15.05L189.78-15.05ZM218.43-20.3L218.43-20.3Q213.83-20.3 213.83-12.4L213.83-12.4Q213.83-8.4 215.11-6.83 216.38-5.25 218.78-5.25L218.78-5.25Q222.58-5.25 225.48-5.95L225.48-5.95 226.98-2.1Q225.38-1.05 222.68-0.33 219.98 0.4 217.43 0.4L217.43 0.4Q206.63 0.4 206.63-12.1L206.63-12.1Q206.63-19.4 210.38-22.6L210.38-22.6Q213.73-25.4 218.53-25.4 223.33-25.4 226.53-23.6L226.53-23.6Q226.58-23.1 226.58-22.65L226.58-22.65Q226.58-19.8 225.28-17.25L225.28-17.25 220.88-17.25Q220.18-18.5 220.03-20.25L220.03-20.25Q219.43-20.3 218.43-20.3ZM228.58-31.65L229.08-35.5Q231.88-36.15 234.28-36.15 236.68-36.15 238.33-36L238.33-36 238.33-23.5Q239.53-24.3 241.53-24.85 243.53-25.4 245.08-25.4L245.08-25.4Q250.03-25.4 251.93-23 253.83-20.6 253.83-15.7L253.83-15.7 253.83-5.55Q255.78-4.8 256.58-3.85L256.58-3.85 256.08 0 244.58 0 244.08-3.85Q244.78-4.8 246.83-5.55L246.83-5.55 246.83-15.45Q246.83-18.15 245.95-19.07 245.08-20 242.78-20 240.48-20 238.33-18.4L238.33-18.4 238.33-5.55Q240.28-4.8 241.08-3.85L241.08-3.85 240.58 0 229.08 0 228.58-3.85Q229.28-4.8 231.33-5.55L231.33-5.55 231.33-29.95Q229.58-30.55 228.58-31.65L228.58-31.65Z" opacity="1" transform="matrix(1,0,0,1,0,0)" fill="black" class="wordmark-text-0" id="SvgjsPath1233"></path></svg></g></svg></g></svg></g></svg></g><g transform="matrix(1,0,0,1,95.36077551980794,0)"><svg viewBox="0 0 33.278448960384104 33.27856" height="33.27856" width="33.278448960384104"><g><svg xmlns="http://www.w3.org/2000/svg" viewBox="0.00021354625035219232 0.00021354625035219232 63.99957290749929 63.99978645374965" x="0" y="0" height="33.27856" width="33.278448960384104" class="icon-icon-0" data-fill-palette-color="accent" id="SvgjsSvg1232"><g data-name="08-Innovate" fill="black"><path d="M43 27H41a9.01 9.01 0 0 0-9-9V16A11.013 11.013 0 0 1 43 27Z" fill="black"></path><path d="M32 38A11.013 11.013 0 0 1 21 27h2a9.011 9.011 0 0 0 9 9Z" fill="black"></path><path d="M37 45H27a1 1 0 0 1-1-1V41.818a16 16 0 1 1 12 0V44A1 1 0 0 1 37 45Zm-9-2h8V41.128a1 1 0 0 1 0.666-0.943 14 14 0 1 0-9.333 0 1 1 0 0 1 0.667 0.943Z" fill="black"></path><path d="M39 49H25a1 1 0 0 1-1-1V44a1 1 0 0 1 1-1H39a1 1 0 0 1 1 1v4A1 1 0 0 1 39 49ZM26 47H38V45H26Z" fill="black"></path><path d="M36 53H28a1 1 0 0 1-0.707-0.293l-2-2A1 1 0 0 1 25 50V48h2v1.586L28.414 51h7.172L37 49.586V48h2v2a1 1 0 0 1-0.293 0.707l-2 2A1 1 0 0 1 36 53Z" fill="black"></path><path d="M33 44H31V27a1 1 0 0 1 1-1h3V24h2v3a1 1 0 0 1-1 1H33Z" fill="black"></path><path d="M32 28H28a1 1 0 0 1-1-1V24h2v2h3Z" fill="black"></path><path d="M36 10H34V7a1 1 0 0 1 1-1h0.586L32 2.414 28.414 6H29a1 1 0 0 1 1 1v3H28V8H26a1 1 0 0 1-0.707-1.707l6-6a1 1 0 0 1 1.414 0l6 6A1 1 0 0 1 38 8H36Z" fill="black"></path><path d="M32 64a1 1 0 0 1-0.707-0.293l-6-6A1 1 0 0 1 26 56h2V54h2v3a1 1 0 0 1-1 1h-0.586L32 61.586 35.586 58H35a1 1 0 0 1-1-1V54h2v2h2a1 1 0 0 1 0.707 1.707l-6 6A1 1 0 0 1 32 64Z" fill="black"></path><path d="M57 39a1 1 0 0 1-1-1V36H48V34h9a1 1 0 0 1 1 1v0.586L61.586 32 58 28.414V29a1 1 0 0 1-1 1H50V28h6V26a1 1 0 0 1 1.707-0.707l6 6a1 1 0 0 1 0 1.414l-6 6A1 1 0 0 1 57 39Z" fill="black"></path><path d="M7 39a1 1 0 0 1-0.707-0.293l-6-6a1 1 0 0 1 0-1.414l6-6A1 1 0 0 1 8 26v2h6v2H7a1 1 0 0 1-1-1v-0.586L2.414 32 6 35.586V35a1 1 0 0 1 1-1h9v2H8v2a1 1 0 0 1-1 1Z" fill="black"></path><path d="M54 54H45a1 1 0 0 1-0.707-1.707L45.586 51l-4.293-4.293 1.414-1.414 5 5a1 1 0 0 1 0 1.414L47.414 52H53V46.414l-0.293 0.293a1 1 0 0 1-1.414 0l-7-7 1.414-1.414L52 44.586l1.293-1.293A1 1 0 0 1 55 44v9A1 1 0 0 1 54 54Z" fill="black"></path><path d="M19 54H10a1 1 0 0 1-1-1V44a1 1 0 0 1 1.707-0.707L12 44.586l6.293-6.293 1.414 1.414-7 7a1 1 0 0 1-1.414 0L11 46.414V52h5.586l-0.293-0.293a1 1 0 0 1 0-1.414l5-5 1.414 1.414L18.414 51l1.293 1.293A1 1 0 0 1 19 54Z" fill="black"></path><path d="M48.707 18.707l-1.414-1.414 4-4a1 1 0 0 1 1.414 0l0.293 0.293V8H47.414l0.293 0.293a1 1 0 0 1 0 1.414l-4 4-1.414-1.414L45.586 9 44.293 7.707A1 1 0 0 1 45 6h9a1 1 0 0 1 1 1v9a1 1 0 0 1-1.707 0.707L52 15.414Z" fill="black"></path><path d="M15.293 18.707L12 15.414l-1.293 1.293A1 1 0 0 1 9 16V7a1 1 0 0 1 1-1h9a1 1 0 0 1 0.707 1.707L18.414 9l3.293 3.293-1.414 1.414-4-4a1 1 0 0 1 0-1.414L16.586 8H11v5.586l0.293-0.293a1 1 0 0 1 1.414 0l4 4Z" fill="black"></path></g></svg></g></svg></g><g></g></svg></g></svg></g></svg></g></svg></g><defs><mask></mask></defs></svg><rect width="448" height="360" fill="black" stroke="none" visibility="hidden"></rect></g></mask><mask><g id="SvgjsG1231"><svg viewBox="0 0 448 360" height="360" width="448"><g><svg></svg></g><g><svg viewBox="0 0 448 360" height="360" width="448"><g><path transform="translate(36.9151,-7.08178) scale(0.00624,0.00624)" d="M25167 8301c221 0 400 179 400 400 0 221-179 400-400 400h-3824l-2753 2753c-156 156-409 156-566 0-156-156-156-409 0-566l2188-2188h-6475c-1847 0-3071 431-3819 1301-760 885-1068 2254-1068 4110 0 11 0 22-1 33l34 5884 2356-2356c156-156 409-156 566 0 156 156 156 409 0 566l-2915 2915c33 5746 31 11443-2 17189 4087 4041 8117 8068 12157 12154h4070c221 0 400 179 400 400 0 221-179 400-400 400h-3279l4160 4208 1-1c1313 1313 2498 2062 3660 2151 1146 87 2316-474 3622-1779l4579-4579h-3323c-221 0-400-179-400-400 0-221 179-400 400-400h4123l2666-2666c156-156 409-156 566 0 156 156 156 409 0 566l-2101 2101h6475c1847 0 3071-431 3819-1301 760-885 1068-2254 1068-4110h2l-34-5917-2568 2568c-156 156-409 156-566 0-156-156-156-409 0-566l3127-3127c-33-5746-31-11443 2-17189-4087-4041-8117-8068-12157-12154h-4193c-221 0-400-179-400-400 0-221 179-400 400-400h3402l-4141-4189c-7-6-13-12-20-18-1313-1313-2498-2062-3660-2151-1146-87-2316 474-3622 1779l-4579 4579h3024zM13737 8301h7275l5144-5144c1483-1483 2856-2116 4247-2010 1374 104 2719 934 4167 2382 8 8 15 15 22 23l4695 4749h6977c2096 0 3515 524 4425 1583 898 1045 1261 2582 1261 4629 0 13-1 25-2 37l-36 6373 4559 4508 1-1c1448 1448 2278 2792 2382 4167 106 1391-528 2764-2010 4247l-4934 4934 38 6710h2c0 2047-364 3584-1261 4629-910 1059-2329 1583-4425 1583h-7275l-5144 5144c-1483 1483-2856 2116-4247 2010-1374-104-2719-934-4167-2382l1-1-4718-4772h-6977c-2096 0-3515-524-4425-1583-898-1045-1261-2582-1261-4629h2l37-6410-4537-4485c-8-7-16-14-23-22-1448-1448-2278-2792-2382-4167-106-1391 528-2764 2010-4247l4934-4934-38-6672c-1-12-2-25-2-37 0-2047 364-3584 1261-4629 910-1059 2329-1583 4425-1583zM8141 30000l-44-7653-4374 4374c-1305 1305-1866 2476-1779 3622 88 1162 838 2348 2151 3660 6 6 13 13 18 20l3983 3937 45-7961zM8882 39860l-32 5627h2c0 1857 308 3226 1068 4110 748 871 1972 1301 3819 1301h6186l-5380-5442-5662-5597zM46264 9101h-6186l5380 5442 5662 5597 32-5594c-1-11-1-22-1-33 0-1857-308-3226-1068-4110-748-871-1972-1301-3819-1301zM51906 22039l-45 7961 44 7653 4374-4374c1305-1305 1866-2476 1779-3622-88-1163-838-2348-2151-3660l1-1-4002-3956z" fill="black" fill-rule="nonzero" stroke="none" stroke-width="1" stroke-linecap="butt" stroke-linejoin="miter" stroke-miterlimit="10" stroke-dasharray="" stroke-dashoffset="0" font-family="none" font-weight="none" font-size="none" text-anchor="none" style="mix-blend-mode: normal"></path></g><g transform="matrix(1,0,0,1,112,144.96482005333334)"><svg viewBox="0 0 224 70.07035989333332" height="70.07035989333332" width="224"><g><svg viewBox="0 0 224 70.07035989333332" height="70.07035989333332" width="224"><g><svg viewBox="0 0 224 70.07035989333332" height="70.07035989333332" width="224"><g transform="matrix(1,0,0,1,0,37.96369322666666)"><svg viewBox="0 0 224 32.10666666666666" height="32.10666666666666" width="224"><g id="SvgjsG1230"><svg viewBox="0 0 224 32.10666666666666" height="32.10666666666666" width="224" id="SvgjsSvg1229"><g><svg viewBox="0 0 224 32.10666666666666" height="32.10666666666666" width="224"><g transform="matrix(1,0,0,1,0,0)"><svg width="224" viewBox="1.6 -36.15 254.98 36.55" height="32.10666666666666" data-palette-color="url(#0b7f5cda-a08a-49dc-bc30-c34098795ddc)"></svg></g></svg></g></svg></g></svg></g><g transform="matrix(1,0,0,1,95.36077551980794,0)"><svg viewBox="0 0 33.278448960384104 33.27856" height="33.27856" width="33.278448960384104"><g><svg xmlns="http://www.w3.org/2000/svg" viewBox="0.00021354625035219232 0.00021354625035219232 63.99957290749929 63.99978645374965" x="0" y="0" height="33.27856" width="33.278448960384104" class="icon-icon-0" data-fill-palette-color="accent" id="SvgjsSvg1228"><g data-name="08-Innovate" fill="black"><path d="M43 27H41a9.01 9.01 0 0 0-9-9V16A11.013 11.013 0 0 1 43 27Z" fill="black"></path><path d="M32 38A11.013 11.013 0 0 1 21 27h2a9.011 9.011 0 0 0 9 9Z" fill="black"></path><path d="M37 45H27a1 1 0 0 1-1-1V41.818a16 16 0 1 1 12 0V44A1 1 0 0 1 37 45Zm-9-2h8V41.128a1 1 0 0 1 0.666-0.943 14 14 0 1 0-9.333 0 1 1 0 0 1 0.667 0.943Z" fill="black"></path><path d="M39 49H25a1 1 0 0 1-1-1V44a1 1 0 0 1 1-1H39a1 1 0 0 1 1 1v4A1 1 0 0 1 39 49ZM26 47H38V45H26Z" fill="black"></path><path d="M36 53H28a1 1 0 0 1-0.707-0.293l-2-2A1 1 0 0 1 25 50V48h2v1.586L28.414 51h7.172L37 49.586V48h2v2a1 1 0 0 1-0.293 0.707l-2 2A1 1 0 0 1 36 53Z" fill="black"></path><path d="M33 44H31V27a1 1 0 0 1 1-1h3V24h2v3a1 1 0 0 1-1 1H33Z" fill="black"></path><path d="M32 28H28a1 1 0 0 1-1-1V24h2v2h3Z" fill="black"></path><path d="M36 10H34V7a1 1 0 0 1 1-1h0.586L32 2.414 28.414 6H29a1 1 0 0 1 1 1v3H28V8H26a1 1 0 0 1-0.707-1.707l6-6a1 1 0 0 1 1.414 0l6 6A1 1 0 0 1 38 8H36Z" fill="black"></path><path d="M32 64a1 1 0 0 1-0.707-0.293l-6-6A1 1 0 0 1 26 56h2V54h2v3a1 1 0 0 1-1 1h-0.586L32 61.586 35.586 58H35a1 1 0 0 1-1-1V54h2v2h2a1 1 0 0 1 0.707 1.707l-6 6A1 1 0 0 1 32 64Z" fill="black"></path><path d="M57 39a1 1 0 0 1-1-1V36H48V34h9a1 1 0 0 1 1 1v0.586L61.586 32 58 28.414V29a1 1 0 0 1-1 1H50V28h6V26a1 1 0 0 1 1.707-0.707l6 6a1 1 0 0 1 0 1.414l-6 6A1 1 0 0 1 57 39Z" fill="black"></path><path d="M7 39a1 1 0 0 1-0.707-0.293l-6-6a1 1 0 0 1 0-1.414l6-6A1 1 0 0 1 8 26v2h6v2H7a1 1 0 0 1-1-1v-0.586L2.414 32 6 35.586V35a1 1 0 0 1 1-1h9v2H8v2a1 1 0 0 1-1 1Z" fill="black"></path><path d="M54 54H45a1 1 0 0 1-0.707-1.707L45.586 51l-4.293-4.293 1.414-1.414 5 5a1 1 0 0 1 0 1.414L47.414 52H53V46.414l-0.293 0.293a1 1 0 0 1-1.414 0l-7-7 1.414-1.414L52 44.586l1.293-1.293A1 1 0 0 1 55 44v9A1 1 0 0 1 54 54Z" fill="black"></path><path d="M19 54H10a1 1 0 0 1-1-1V44a1 1 0 0 1 1.707-0.707L12 44.586l6.293-6.293 1.414 1.414-7 7a1 1 0 0 1-1.414 0L11 46.414V52h5.586l-0.293-0.293a1 1 0 0 1 0-1.414l5-5 1.414 1.414L18.414 51l1.293 1.293A1 1 0 0 1 19 54Z" fill="black"></path><path d="M48.707 18.707l-1.414-1.414 4-4a1 1 0 0 1 1.414 0l0.293 0.293V8H47.414l0.293 0.293a1 1 0 0 1 0 1.414l-4 4-1.414-1.414L45.586 9 44.293 7.707A1 1 0 0 1 45 6h9a1 1 0 0 1 1 1v9a1 1 0 0 1-1.707 0.707L52 15.414Z" fill="black"></path><path d="M15.293 18.707L12 15.414l-1.293 1.293A1 1 0 0 1 9 16V7a1 1 0 0 1 1-1h9a1 1 0 0 1 0.707 1.707L18.414 9l3.293 3.293-1.414 1.414-4-4a1 1 0 0 1 0-1.414L16.586 8H11v5.586l0.293-0.293a1 1 0 0 1 1.414 0l4 4Z" fill="black"></path></g></svg></g></svg></g><g></g></svg></g></svg></g></svg></g></svg></g><defs><mask></mask></defs><mask><g id="SvgjsG1227"><svg viewBox="0 0 448 360" height="360" width="448"><g><svg></svg></g><g><svg viewBox="0 0 448 360" height="360" width="448"><g><path transform="translate(36.9151,-7.08178) scale(0.00624,0.00624)" d="M25167 8301c221 0 400 179 400 400 0 221-179 400-400 400h-3824l-2753 2753c-156 156-409 156-566 0-156-156-156-409 0-566l2188-2188h-6475c-1847 0-3071 431-3819 1301-760 885-1068 2254-1068 4110 0 11 0 22-1 33l34 5884 2356-2356c156-156 409-156 566 0 156 156 156 409 0 566l-2915 2915c33 5746 31 11443-2 17189 4087 4041 8117 8068 12157 12154h4070c221 0 400 179 400 400 0 221-179 400-400 400h-3279l4160 4208 1-1c1313 1313 2498 2062 3660 2151 1146 87 2316-474 3622-1779l4579-4579h-3323c-221 0-400-179-400-400 0-221 179-400 400-400h4123l2666-2666c156-156 409-156 566 0 156 156 156 409 0 566l-2101 2101h6475c1847 0 3071-431 3819-1301 760-885 1068-2254 1068-4110h2l-34-5917-2568 2568c-156 156-409 156-566 0-156-156-156-409 0-566l3127-3127c-33-5746-31-11443 2-17189-4087-4041-8117-8068-12157-12154h-4193c-221 0-400-179-400-400 0-221 179-400 400-400h3402l-4141-4189c-7-6-13-12-20-18-1313-1313-2498-2062-3660-2151-1146-87-2316 474-3622 1779l-4579 4579h3024zM13737 8301h7275l5144-5144c1483-1483 2856-2116 4247-2010 1374 104 2719 934 4167 2382 8 8 15 15 22 23l4695 4749h6977c2096 0 3515 524 4425 1583 898 1045 1261 2582 1261 4629 0 13-1 25-2 37l-36 6373 4559 4508 1-1c1448 1448 2278 2792 2382 4167 106 1391-528 2764-2010 4247l-4934 4934 38 6710h2c0 2047-364 3584-1261 4629-910 1059-2329 1583-4425 1583h-7275l-5144 5144c-1483 1483-2856 2116-4247 2010-1374-104-2719-934-4167-2382l1-1-4718-4772h-6977c-2096 0-3515-524-4425-1583-898-1045-1261-2582-1261-4629h2l37-6410-4537-4485c-8-7-16-14-23-22-1448-1448-2278-2792-2382-4167-106-1391 528-2764 2010-4247l4934-4934-38-6672c-1-12-2-25-2-37 0-2047 364-3584 1261-4629 910-1059 2329-1583 4425-1583zM8141 30000l-44-7653-4374 4374c-1305 1305-1866 2476-1779 3622 88 1162 838 2348 2151 3660 6 6 13 13 18 20l3983 3937 45-7961zM8882 39860l-32 5627h2c0 1857 308 3226 1068 4110 748 871 1972 1301 3819 1301h6186l-5380-5442-5662-5597zM46264 9101h-6186l5380 5442 5662 5597 32-5594c-1-11-1-22-1-33 0-1857-308-3226-1068-4110-748-871-1972-1301-3819-1301zM51906 22039l-45 7961 44 7653 4374-4374c1305-1305 1866-2476 1779-3622-88-1163-838-2348-2151-3660l1-1-4002-3956z" fill="black" fill-rule="nonzero" stroke="none" stroke-width="1" stroke-linecap="butt" stroke-linejoin="miter" stroke-miterlimit="10" stroke-dasharray="" stroke-dashoffset="0" font-family="none" font-weight="none" font-size="none" text-anchor="none" style="mix-blend-mode: normal"></path></g><g transform="matrix(1,0,0,1,112,144.96482005333334)"><svg viewBox="0 0 224 70.07035989333332" height="70.07035989333332" width="224"><g><svg viewBox="0 0 224 70.07035989333332" height="70.07035989333332" width="224"><g><svg viewBox="0 0 224 70.07035989333332" height="70.07035989333332" width="224"><g transform="matrix(1,0,0,1,0,37.96369322666666)"><svg viewBox="0 0 224 32.10666666666666" height="32.10666666666666" width="224"><g id="SvgjsG1226"><svg viewBox="0 0 224 32.10666666666666" height="32.10666666666666" width="224" id="SvgjsSvg1225"><g><svg viewBox="0 0 224 32.10666666666666" height="32.10666666666666" width="224"><g transform="matrix(1,0,0,1,0,0)"><svg width="224" viewBox="1.6 -36.15 254.98 36.55" height="32.10666666666666" data-palette-color="url(#0b7f5cda-a08a-49dc-bc30-c34098795ddc)"><path d="M2.1-34.5L13.8-34.5 14.3-30.35Q13.5-29.4 11.55-28.65L11.55-28.65 11.55-5.8Q13.55-5 14.3-4.15L14.3-4.15 13.8 0 2.1 0 1.6-4.15Q2.25-5 4.35-5.8L4.35-5.8 4.35-28.65Q2.3-29.4 1.6-30.35L1.6-30.35 2.1-34.5ZM17.2-21.15L17.7-25Q20.45-25.6 22.65-25.6 24.85-25.6 26.3-25.5L26.3-25.5 26.3-23Q27.55-24.05 29.62-24.73 31.7-25.4 33.6-25.4L33.6-25.4Q38.5-25.4 40.47-23.1 42.45-20.8 42.45-15.15L42.45-15.15 42.45-5.55Q44.4-4.8 45.2-3.85L45.2-3.85 44.7 0 33.2 0 32.7-3.85Q33.4-4.8 35.45-5.55L35.45-5.55 35.45-15.45Q35.45-18.15 34.57-19.07 33.7-20 31.45-20 29.2-20 26.95-18.4L26.95-18.4 26.95-5.55Q28.9-4.8 29.7-3.85L29.7-3.85 29.2 0 17.7 0 17.2-3.85Q17.9-4.8 19.95-5.55L19.95-5.55 19.95-19.45Q18.2-20.05 17.2-21.15L17.2-21.15ZM46.95-21.15L47.45-25Q50.2-25.6 52.4-25.6 54.6-25.6 56.05-25.5L56.05-25.5 56.05-23Q57.3-24.05 59.37-24.73 61.45-25.4 63.34-25.4L63.34-25.4Q68.25-25.4 70.22-23.1 72.2-20.8 72.2-15.15L72.2-15.15 72.2-5.55Q74.15-4.8 74.95-3.85L74.95-3.85 74.45 0 62.95 0 62.45-3.85Q63.15-4.8 65.2-5.55L65.2-5.55 65.2-15.45Q65.2-18.15 64.32-19.07 63.45-20 61.2-20 58.95-20 56.7-18.4L56.7-18.4 56.7-5.55Q58.65-4.8 59.45-3.85L59.45-3.85 58.95 0 47.45 0 46.95-3.85Q47.65-4.8 49.7-5.55L49.7-5.55 49.7-19.45Q47.95-20.05 46.95-21.15L46.95-21.15ZM88.27 0.4Q82.34 0.4 79.49-2.75 76.64-5.9 76.64-12.28 76.64-18.65 79.82-22.03 82.99-25.4 88.94-25.4 94.89-25.4 97.77-22.4 100.64-19.4 100.64-13.03 100.64-6.65 97.42-3.13 94.19 0.4 88.27 0.4ZM83.84-12.7L83.84-12.7Q83.84-4.7 88.64-4.7L88.64-4.7Q91.09-4.7 92.27-6.53 93.44-8.35 93.44-12.5L93.44-12.5Q93.44-20.3 88.54-20.3L88.54-20.3Q86.14-20.3 84.99-18.57 83.84-16.85 83.84-12.7ZM126.74-19.2L118.49 0.3 112.99 0.3 104.79-19.2Q102.29-20 101.44-21.15L101.44-21.15 101.94-25 113.44-25 113.94-21.15Q113.29-20.35 111.79-19.7L111.79-19.7 114.49-12.15Q115.39-9.8 115.79-7.5L115.79-7.5 115.89-6.8 116.59-6.8Q116.99-9.3 117.99-12.05L117.99-12.05 120.64-19.45Q118.79-20.15 118.04-21.15L118.04-21.15 118.54-25 129.54-25 130.04-21.15Q129.14-20 126.74-19.2L126.74-19.2ZM132.29-21.3L132.29-21.3Q132.29-22.05 132.34-22.9L132.34-22.9Q136.99-25.4 142.34-25.4 147.69-25.4 150.01-23.38 152.34-21.35 152.34-16.65L152.34-16.65 152.34-6Q154.09-5.65 155.09-5.15L155.09-5.15 155.09-0.8Q152.54 0.4 147.79 0.4L147.79 0.4Q147.29-0.9 146.94-2.75L146.94-2.75Q144.79 0.4 139.14 0.4L139.14 0.4Q135.79 0.4 133.41-1.55 131.04-3.5 131.04-6.85 131.04-10.2 133.26-12.13 135.49-14.05 139.89-14.05L139.89-14.05 145.34-14.05 145.34-16.45Q145.34-20.35 141.19-20.35L141.19-20.35Q139.64-20.35 138.64-20.05L138.64-20.05Q138.54-17.95 138.04-16.8L138.04-16.8 133.14-16.8Q132.29-18.55 132.29-21.3ZM141.29-4.7L141.29-4.7Q143.84-4.7 145.34-6.2L145.34-6.2 145.34-10.3 141.84-10.3Q138.24-10.3 138.24-7.55L138.24-7.55Q138.24-6.3 139.01-5.5 139.79-4.7 141.29-4.7ZM152.84-34.45L180.84-34.45 180.84-27.3 177.69-26.9Q177.03-27.4 176.44-29L176.44-29 170.44-29 170.44-5.8Q172.44-5 173.19-4.15L173.19-4.15 172.69 0 160.99 0 160.49-4.15Q161.13-5 163.24-5.8L163.24-5.8 163.24-29 157.24-29Q156.63-27.4 155.99-26.9L155.99-26.9 152.84-27.3 152.84-34.45ZM194.53 0.4L194.53 0.4Q188.53 0.4 185.51-2.8 182.48-6 182.48-12.1L182.48-12.1Q182.48-15.8 183.53-18.48 184.58-21.15 186.38-22.6L186.38-22.6Q189.88-25.4 194.53-25.4 199.18-25.4 201.66-23.03 204.13-20.65 204.13-14.5L204.13-14.5Q204.13-10.9 200.58-10.9L200.58-10.9 189.73-10.9Q189.93-7.75 191.36-6.45 192.78-5.15 195.88-5.15L195.88-5.15Q197.58-5.15 199.13-5.55 200.68-5.95 201.38-6.35L201.38-6.35 202.08-6.75 203.58-2.75Q203.28-2.4 202.71-1.88 202.13-1.35 199.81-0.48 197.48 0.4 194.53 0.4ZM189.78-15.05L197.68-15.35Q197.78-16.05 197.78-17.05 197.78-18.05 196.98-19.18 196.18-20.3 194.21-20.3 192.23-20.3 191.18-19.1 190.13-17.9 189.78-15.05L189.78-15.05ZM218.43-20.3L218.43-20.3Q213.83-20.3 213.83-12.4L213.83-12.4Q213.83-8.4 215.11-6.83 216.38-5.25 218.78-5.25L218.78-5.25Q222.58-5.25 225.48-5.95L225.48-5.95 226.98-2.1Q225.38-1.05 222.68-0.33 219.98 0.4 217.43 0.4L217.43 0.4Q206.63 0.4 206.63-12.1L206.63-12.1Q206.63-19.4 210.38-22.6L210.38-22.6Q213.73-25.4 218.53-25.4 223.33-25.4 226.53-23.6L226.53-23.6Q226.58-23.1 226.58-22.65L226.58-22.65Q226.58-19.8 225.28-17.25L225.28-17.25 220.88-17.25Q220.18-18.5 220.03-20.25L220.03-20.25Q219.43-20.3 218.43-20.3ZM228.58-31.65L229.08-35.5Q231.88-36.15 234.28-36.15 236.68-36.15 238.33-36L238.33-36 238.33-23.5Q239.53-24.3 241.53-24.85 243.53-25.4 245.08-25.4L245.08-25.4Q250.03-25.4 251.93-23 253.83-20.6 253.83-15.7L253.83-15.7 253.83-5.55Q255.78-4.8 256.58-3.85L256.58-3.85 256.08 0 244.58 0 244.08-3.85Q244.78-4.8 246.83-5.55L246.83-5.55 246.83-15.45Q246.83-18.15 245.95-19.07 245.08-20 242.78-20 240.48-20 238.33-18.4L238.33-18.4 238.33-5.55Q240.28-4.8 241.08-3.85L241.08-3.85 240.58 0 229.08 0 228.58-3.85Q229.28-4.8 231.33-5.55L231.33-5.55 231.33-29.95Q229.58-30.55 228.58-31.65L228.58-31.65Z" opacity="1" transform="matrix(1,0,0,1,0,0)" fill="black" class="wordmark-text-0" id="SvgjsPath1224"></path></svg></g></svg></g></svg></g></svg></g><g transform="matrix(1,0,0,1,95.36077551980794,0)"><svg viewBox="0 0 33.278448960384104 33.27856" height="33.27856" width="33.278448960384104"><g><svg xmlns="http://www.w3.org/2000/svg" viewBox="0.00021354625035219232 0.00021354625035219232 63.99957290749929 63.99978645374965" x="0" y="0" height="33.27856" width="33.278448960384104" class="icon-icon-0" data-fill-palette-color="accent" id="SvgjsSvg1223"><g data-name="08-Innovate" fill="black"><path d="M43 27H41a9.01 9.01 0 0 0-9-9V16A11.013 11.013 0 0 1 43 27Z" fill="black"></path><path d="M32 38A11.013 11.013 0 0 1 21 27h2a9.011 9.011 0 0 0 9 9Z" fill="black"></path><path d="M37 45H27a1 1 0 0 1-1-1V41.818a16 16 0 1 1 12 0V44A1 1 0 0 1 37 45Zm-9-2h8V41.128a1 1 0 0 1 0.666-0.943 14 14 0 1 0-9.333 0 1 1 0 0 1 0.667 0.943Z" fill="black"></path><path d="M39 49H25a1 1 0 0 1-1-1V44a1 1 0 0 1 1-1H39a1 1 0 0 1 1 1v4A1 1 0 0 1 39 49ZM26 47H38V45H26Z" fill="black"></path><path d="M36 53H28a1 1 0 0 1-0.707-0.293l-2-2A1 1 0 0 1 25 50V48h2v1.586L28.414 51h7.172L37 49.586V48h2v2a1 1 0 0 1-0.293 0.707l-2 2A1 1 0 0 1 36 53Z" fill="black"></path><path d="M33 44H31V27a1 1 0 0 1 1-1h3V24h2v3a1 1 0 0 1-1 1H33Z" fill="black"></path><path d="M32 28H28a1 1 0 0 1-1-1V24h2v2h3Z" fill="black"></path><path d="M36 10H34V7a1 1 0 0 1 1-1h0.586L32 2.414 28.414 6H29a1 1 0 0 1 1 1v3H28V8H26a1 1 0 0 1-0.707-1.707l6-6a1 1 0 0 1 1.414 0l6 6A1 1 0 0 1 38 8H36Z" fill="black"></path><path d="M32 64a1 1 0 0 1-0.707-0.293l-6-6A1 1 0 0 1 26 56h2V54h2v3a1 1 0 0 1-1 1h-0.586L32 61.586 35.586 58H35a1 1 0 0 1-1-1V54h2v2h2a1 1 0 0 1 0.707 1.707l-6 6A1 1 0 0 1 32 64Z" fill="black"></path><path d="M57 39a1 1 0 0 1-1-1V36H48V34h9a1 1 0 0 1 1 1v0.586L61.586 32 58 28.414V29a1 1 0 0 1-1 1H50V28h6V26a1 1 0 0 1 1.707-0.707l6 6a1 1 0 0 1 0 1.414l-6 6A1 1 0 0 1 57 39Z" fill="black"></path><path d="M7 39a1 1 0 0 1-0.707-0.293l-6-6a1 1 0 0 1 0-1.414l6-6A1 1 0 0 1 8 26v2h6v2H7a1 1 0 0 1-1-1v-0.586L2.414 32 6 35.586V35a1 1 0 0 1 1-1h9v2H8v2a1 1 0 0 1-1 1Z" fill="black"></path><path d="M54 54H45a1 1 0 0 1-0.707-1.707L45.586 51l-4.293-4.293 1.414-1.414 5 5a1 1 0 0 1 0 1.414L47.414 52H53V46.414l-0.293 0.293a1 1 0 0 1-1.414 0l-7-7 1.414-1.414L52 44.586l1.293-1.293A1 1 0 0 1 55 44v9A1 1 0 0 1 54 54Z" fill="black"></path><path d="M19 54H10a1 1 0 0 1-1-1V44a1 1 0 0 1 1.707-0.707L12 44.586l6.293-6.293 1.414 1.414-7 7a1 1 0 0 1-1.414 0L11 46.414V52h5.586l-0.293-0.293a1 1 0 0 1 0-1.414l5-5 1.414 1.414L18.414 51l1.293 1.293A1 1 0 0 1 19 54Z" fill="black"></path><path d="M48.707 18.707l-1.414-1.414 4-4a1 1 0 0 1 1.414 0l0.293 0.293V8H47.414l0.293 0.293a1 1 0 0 1 0 1.414l-4 4-1.414-1.414L45.586 9 44.293 7.707A1 1 0 0 1 45 6h9a1 1 0 0 1 1 1v9a1 1 0 0 1-1.707 0.707L52 15.414Z" fill="black"></path><path d="M15.293 18.707L12 15.414l-1.293 1.293A1 1 0 0 1 9 16V7a1 1 0 0 1 1-1h9a1 1 0 0 1 0.707 1.707L18.414 9l3.293 3.293-1.414 1.414-4-4a1 1 0 0 1 0-1.414L16.586 8H11v5.586l0.293-0.293a1 1 0 0 1 1.414 0l4 4Z" fill="black"></path></g></svg></g></svg></g><g></g></svg></g></svg></g></svg></g></svg></g><defs><mask></mask></defs></svg><rect width="448" height="360" fill="black" stroke="none" visibility="hidden"></rect></g></mask></svg><rect width="448" height="360" fill="black" stroke="none" visibility="hidden"></rect></g></mask></svg><rect width="448" height="360" fill="black" stroke="none" visibility="hidden"></rect></g></mask><linearGradient x1="0" x2="1" y1="0.548" y2="0.55" id="c0078a19-9498-4a3a-b9f2-a51ccd4c316e"><stop stop-color="#ff6cab" offset="0"></stop><stop stop-color="#7366ff" offset="1"></stop></linearGradient></svg><rect width="448" height="360" fill="none" stroke="none" visibility="hidden"></rect></g></svg></g></svg>